<?xml version="1.0" encoding="utf-8" standalone="no"?>
<!DOCTYPE svg PUBLIC "-//W3C//DTD SVG 1.1//EN"
  "http://www.w3.org/Graphics/SVG/1.1/DTD/svg11.dtd">
<!-- Created with matplotlib (https://matplotlib.org/) -->
<svg height="277.314375pt" version="1.1" viewBox="0 0 398.50625 277.314375" width="398.50625pt" xmlns="http://www.w3.org/2000/svg" xmlns:xlink="http://www.w3.org/1999/xlink">
 <defs>
  <style type="text/css">
*{stroke-linecap:butt;stroke-linejoin:round;}
  </style>
 </defs>
 <g id="figure_1">
  <g id="patch_1">
   <path d="M 0 277.314375 
L 398.50625 277.314375 
L 398.50625 0 
L 0 0 
z
"/>
  </g>
  <g id="axes_1">
   <g id="patch_2">
    <path d="M 56.50625 239.758125 
L 391.30625 239.758125 
L 391.30625 22.318125 
L 56.50625 22.318125 
z
"/>
   </g>
   <g id="matplotlib.axis_1">
    <g id="xtick_1">
     <g id="line2d_1">
      <defs>
       <path d="M 0 0 
L 0 3.5 
" id="m137d18dc3d" style="stroke:#ffffff;stroke-width:0.8;"/>
      </defs>
      <g>
       <use style="fill:#ffffff;stroke:#ffffff;stroke-width:0.8;" x="71.724432" xlink:href="#m137d18dc3d" y="239.758125"/>
      </g>
     </g>
     <g id="text_1">
      <!-- 0 -->
      <defs>
       <path d="M 31.78125 66.40625 
Q 24.171875 66.40625 20.328125 58.90625 
Q 16.5 51.421875 16.5 36.375 
Q 16.5 21.390625 20.328125 13.890625 
Q 24.171875 6.390625 31.78125 6.390625 
Q 39.453125 6.390625 43.28125 13.890625 
Q 47.125 21.390625 47.125 36.375 
Q 47.125 51.421875 43.28125 58.90625 
Q 39.453125 66.40625 31.78125 66.40625 
z
M 31.78125 74.21875 
Q 44.046875 74.21875 50.515625 64.515625 
Q 56.984375 54.828125 56.984375 36.375 
Q 56.984375 17.96875 50.515625 8.265625 
Q 44.046875 -1.421875 31.78125 -1.421875 
Q 19.53125 -1.421875 13.0625 8.265625 
Q 6.59375 17.96875 6.59375 36.375 
Q 6.59375 54.828125 13.0625 64.515625 
Q 19.53125 74.21875 31.78125 74.21875 
z
" id="DejaVuSans-48"/>
      </defs>
      <g style="fill:#ffffff;" transform="translate(68.543182 254.356562)scale(0.1 -0.1)">
       <use xlink:href="#DejaVuSans-48"/>
      </g>
     </g>
    </g>
    <g id="xtick_2">
     <g id="line2d_2">
      <g>
       <use style="fill:#ffffff;stroke:#ffffff;stroke-width:0.8;" x="132.658093" xlink:href="#m137d18dc3d" y="239.758125"/>
      </g>
     </g>
     <g id="text_2">
      <!-- 200 -->
      <defs>
       <path d="M 19.1875 8.296875 
L 53.609375 8.296875 
L 53.609375 0 
L 7.328125 0 
L 7.328125 8.296875 
Q 12.9375 14.109375 22.625 23.890625 
Q 32.328125 33.6875 34.8125 36.53125 
Q 39.546875 41.84375 41.421875 45.53125 
Q 43.3125 49.21875 43.3125 52.78125 
Q 43.3125 58.59375 39.234375 62.25 
Q 35.15625 65.921875 28.609375 65.921875 
Q 23.96875 65.921875 18.8125 64.3125 
Q 13.671875 62.703125 7.8125 59.421875 
L 7.8125 69.390625 
Q 13.765625 71.78125 18.9375 73 
Q 24.125 74.21875 28.421875 74.21875 
Q 39.75 74.21875 46.484375 68.546875 
Q 53.21875 62.890625 53.21875 53.421875 
Q 53.21875 48.921875 51.53125 44.890625 
Q 49.859375 40.875 45.40625 35.40625 
Q 44.1875 33.984375 37.640625 27.21875 
Q 31.109375 20.453125 19.1875 8.296875 
z
" id="DejaVuSans-50"/>
      </defs>
      <g style="fill:#ffffff;" transform="translate(123.114343 254.356562)scale(0.1 -0.1)">
       <use xlink:href="#DejaVuSans-50"/>
       <use x="63.623047" xlink:href="#DejaVuSans-48"/>
       <use x="127.246094" xlink:href="#DejaVuSans-48"/>
      </g>
     </g>
    </g>
    <g id="xtick_3">
     <g id="line2d_3">
      <g>
       <use style="fill:#ffffff;stroke:#ffffff;stroke-width:0.8;" x="193.591754" xlink:href="#m137d18dc3d" y="239.758125"/>
      </g>
     </g>
     <g id="text_3">
      <!-- 400 -->
      <defs>
       <path d="M 37.796875 64.3125 
L 12.890625 25.390625 
L 37.796875 25.390625 
z
M 35.203125 72.90625 
L 47.609375 72.90625 
L 47.609375 25.390625 
L 58.015625 25.390625 
L 58.015625 17.1875 
L 47.609375 17.1875 
L 47.609375 0 
L 37.796875 0 
L 37.796875 17.1875 
L 4.890625 17.1875 
L 4.890625 26.703125 
z
" id="DejaVuSans-52"/>
      </defs>
      <g style="fill:#ffffff;" transform="translate(184.048004 254.356562)scale(0.1 -0.1)">
       <use xlink:href="#DejaVuSans-52"/>
       <use x="63.623047" xlink:href="#DejaVuSans-48"/>
       <use x="127.246094" xlink:href="#DejaVuSans-48"/>
      </g>
     </g>
    </g>
    <g id="xtick_4">
     <g id="line2d_4">
      <g>
       <use style="fill:#ffffff;stroke:#ffffff;stroke-width:0.8;" x="254.525415" xlink:href="#m137d18dc3d" y="239.758125"/>
      </g>
     </g>
     <g id="text_4">
      <!-- 600 -->
      <defs>
       <path d="M 33.015625 40.375 
Q 26.375 40.375 22.484375 35.828125 
Q 18.609375 31.296875 18.609375 23.390625 
Q 18.609375 15.53125 22.484375 10.953125 
Q 26.375 6.390625 33.015625 6.390625 
Q 39.65625 6.390625 43.53125 10.953125 
Q 47.40625 15.53125 47.40625 23.390625 
Q 47.40625 31.296875 43.53125 35.828125 
Q 39.65625 40.375 33.015625 40.375 
z
M 52.59375 71.296875 
L 52.59375 62.3125 
Q 48.875 64.0625 45.09375 64.984375 
Q 41.3125 65.921875 37.59375 65.921875 
Q 27.828125 65.921875 22.671875 59.328125 
Q 17.53125 52.734375 16.796875 39.40625 
Q 19.671875 43.65625 24.015625 45.921875 
Q 28.375 48.1875 33.59375 48.1875 
Q 44.578125 48.1875 50.953125 41.515625 
Q 57.328125 34.859375 57.328125 23.390625 
Q 57.328125 12.15625 50.6875 5.359375 
Q 44.046875 -1.421875 33.015625 -1.421875 
Q 20.359375 -1.421875 13.671875 8.265625 
Q 6.984375 17.96875 6.984375 36.375 
Q 6.984375 53.65625 15.1875 63.9375 
Q 23.390625 74.21875 37.203125 74.21875 
Q 40.921875 74.21875 44.703125 73.484375 
Q 48.484375 72.75 52.59375 71.296875 
z
" id="DejaVuSans-54"/>
      </defs>
      <g style="fill:#ffffff;" transform="translate(244.981665 254.356562)scale(0.1 -0.1)">
       <use xlink:href="#DejaVuSans-54"/>
       <use x="63.623047" xlink:href="#DejaVuSans-48"/>
       <use x="127.246094" xlink:href="#DejaVuSans-48"/>
      </g>
     </g>
    </g>
    <g id="xtick_5">
     <g id="line2d_5">
      <g>
       <use style="fill:#ffffff;stroke:#ffffff;stroke-width:0.8;" x="315.459076" xlink:href="#m137d18dc3d" y="239.758125"/>
      </g>
     </g>
     <g id="text_5">
      <!-- 800 -->
      <defs>
       <path d="M 31.78125 34.625 
Q 24.75 34.625 20.71875 30.859375 
Q 16.703125 27.09375 16.703125 20.515625 
Q 16.703125 13.921875 20.71875 10.15625 
Q 24.75 6.390625 31.78125 6.390625 
Q 38.8125 6.390625 42.859375 10.171875 
Q 46.921875 13.96875 46.921875 20.515625 
Q 46.921875 27.09375 42.890625 30.859375 
Q 38.875 34.625 31.78125 34.625 
z
M 21.921875 38.8125 
Q 15.578125 40.375 12.03125 44.71875 
Q 8.5 49.078125 8.5 55.328125 
Q 8.5 64.0625 14.71875 69.140625 
Q 20.953125 74.21875 31.78125 74.21875 
Q 42.671875 74.21875 48.875 69.140625 
Q 55.078125 64.0625 55.078125 55.328125 
Q 55.078125 49.078125 51.53125 44.71875 
Q 48 40.375 41.703125 38.8125 
Q 48.828125 37.15625 52.796875 32.3125 
Q 56.78125 27.484375 56.78125 20.515625 
Q 56.78125 9.90625 50.3125 4.234375 
Q 43.84375 -1.421875 31.78125 -1.421875 
Q 19.734375 -1.421875 13.25 4.234375 
Q 6.78125 9.90625 6.78125 20.515625 
Q 6.78125 27.484375 10.78125 32.3125 
Q 14.796875 37.15625 21.921875 38.8125 
z
M 18.3125 54.390625 
Q 18.3125 48.734375 21.84375 45.5625 
Q 25.390625 42.390625 31.78125 42.390625 
Q 38.140625 42.390625 41.71875 45.5625 
Q 45.3125 48.734375 45.3125 54.390625 
Q 45.3125 60.0625 41.71875 63.234375 
Q 38.140625 66.40625 31.78125 66.40625 
Q 25.390625 66.40625 21.84375 63.234375 
Q 18.3125 60.0625 18.3125 54.390625 
z
" id="DejaVuSans-56"/>
      </defs>
      <g style="fill:#ffffff;" transform="translate(305.915326 254.356562)scale(0.1 -0.1)">
       <use xlink:href="#DejaVuSans-56"/>
       <use x="63.623047" xlink:href="#DejaVuSans-48"/>
       <use x="127.246094" xlink:href="#DejaVuSans-48"/>
      </g>
     </g>
    </g>
    <g id="xtick_6">
     <g id="line2d_6">
      <g>
       <use style="fill:#ffffff;stroke:#ffffff;stroke-width:0.8;" x="376.392736" xlink:href="#m137d18dc3d" y="239.758125"/>
      </g>
     </g>
     <g id="text_6">
      <!-- 1000 -->
      <defs>
       <path d="M 12.40625 8.296875 
L 28.515625 8.296875 
L 28.515625 63.921875 
L 10.984375 60.40625 
L 10.984375 69.390625 
L 28.421875 72.90625 
L 38.28125 72.90625 
L 38.28125 8.296875 
L 54.390625 8.296875 
L 54.390625 0 
L 12.40625 0 
z
" id="DejaVuSans-49"/>
      </defs>
      <g style="fill:#ffffff;" transform="translate(363.667736 254.356562)scale(0.1 -0.1)">
       <use xlink:href="#DejaVuSans-49"/>
       <use x="63.623047" xlink:href="#DejaVuSans-48"/>
       <use x="127.246094" xlink:href="#DejaVuSans-48"/>
       <use x="190.869141" xlink:href="#DejaVuSans-48"/>
      </g>
     </g>
    </g>
    <g id="text_7">
     <!-- Epoch -->
     <defs>
      <path d="M 9.8125 72.90625 
L 55.90625 72.90625 
L 55.90625 64.59375 
L 19.671875 64.59375 
L 19.671875 43.015625 
L 54.390625 43.015625 
L 54.390625 34.71875 
L 19.671875 34.71875 
L 19.671875 8.296875 
L 56.78125 8.296875 
L 56.78125 0 
L 9.8125 0 
z
" id="DejaVuSans-69"/>
      <path d="M 18.109375 8.203125 
L 18.109375 -20.796875 
L 9.078125 -20.796875 
L 9.078125 54.6875 
L 18.109375 54.6875 
L 18.109375 46.390625 
Q 20.953125 51.265625 25.265625 53.625 
Q 29.59375 56 35.59375 56 
Q 45.5625 56 51.78125 48.09375 
Q 58.015625 40.1875 58.015625 27.296875 
Q 58.015625 14.40625 51.78125 6.484375 
Q 45.5625 -1.421875 35.59375 -1.421875 
Q 29.59375 -1.421875 25.265625 0.953125 
Q 20.953125 3.328125 18.109375 8.203125 
z
M 48.6875 27.296875 
Q 48.6875 37.203125 44.609375 42.84375 
Q 40.53125 48.484375 33.40625 48.484375 
Q 26.265625 48.484375 22.1875 42.84375 
Q 18.109375 37.203125 18.109375 27.296875 
Q 18.109375 17.390625 22.1875 11.75 
Q 26.265625 6.109375 33.40625 6.109375 
Q 40.53125 6.109375 44.609375 11.75 
Q 48.6875 17.390625 48.6875 27.296875 
z
" id="DejaVuSans-112"/>
      <path d="M 30.609375 48.390625 
Q 23.390625 48.390625 19.1875 42.75 
Q 14.984375 37.109375 14.984375 27.296875 
Q 14.984375 17.484375 19.15625 11.84375 
Q 23.34375 6.203125 30.609375 6.203125 
Q 37.796875 6.203125 41.984375 11.859375 
Q 46.1875 17.53125 46.1875 27.296875 
Q 46.1875 37.015625 41.984375 42.703125 
Q 37.796875 48.390625 30.609375 48.390625 
z
M 30.609375 56 
Q 42.328125 56 49.015625 48.375 
Q 55.71875 40.765625 55.71875 27.296875 
Q 55.71875 13.875 49.015625 6.21875 
Q 42.328125 -1.421875 30.609375 -1.421875 
Q 18.84375 -1.421875 12.171875 6.21875 
Q 5.515625 13.875 5.515625 27.296875 
Q 5.515625 40.765625 12.171875 48.375 
Q 18.84375 56 30.609375 56 
z
" id="DejaVuSans-111"/>
      <path d="M 48.78125 52.59375 
L 48.78125 44.1875 
Q 44.96875 46.296875 41.140625 47.34375 
Q 37.3125 48.390625 33.40625 48.390625 
Q 24.65625 48.390625 19.8125 42.84375 
Q 14.984375 37.3125 14.984375 27.296875 
Q 14.984375 17.28125 19.8125 11.734375 
Q 24.65625 6.203125 33.40625 6.203125 
Q 37.3125 6.203125 41.140625 7.25 
Q 44.96875 8.296875 48.78125 10.40625 
L 48.78125 2.09375 
Q 45.015625 0.34375 40.984375 -0.53125 
Q 36.96875 -1.421875 32.421875 -1.421875 
Q 20.0625 -1.421875 12.78125 6.34375 
Q 5.515625 14.109375 5.515625 27.296875 
Q 5.515625 40.671875 12.859375 48.328125 
Q 20.21875 56 33.015625 56 
Q 37.15625 56 41.109375 55.140625 
Q 45.0625 54.296875 48.78125 52.59375 
z
" id="DejaVuSans-99"/>
      <path d="M 54.890625 33.015625 
L 54.890625 0 
L 45.90625 0 
L 45.90625 32.71875 
Q 45.90625 40.484375 42.875 44.328125 
Q 39.84375 48.1875 33.796875 48.1875 
Q 26.515625 48.1875 22.3125 43.546875 
Q 18.109375 38.921875 18.109375 30.90625 
L 18.109375 0 
L 9.078125 0 
L 9.078125 75.984375 
L 18.109375 75.984375 
L 18.109375 46.1875 
Q 21.34375 51.125 25.703125 53.5625 
Q 30.078125 56 35.796875 56 
Q 45.21875 56 50.046875 50.171875 
Q 54.890625 44.34375 54.890625 33.015625 
z
" id="DejaVuSans-104"/>
     </defs>
     <g style="fill:#ffffff;" transform="translate(208.595313 268.034687)scale(0.1 -0.1)">
      <use xlink:href="#DejaVuSans-69"/>
      <use x="63.183594" xlink:href="#DejaVuSans-112"/>
      <use x="126.660156" xlink:href="#DejaVuSans-111"/>
      <use x="187.841797" xlink:href="#DejaVuSans-99"/>
      <use x="242.822266" xlink:href="#DejaVuSans-104"/>
     </g>
    </g>
   </g>
   <g id="matplotlib.axis_2">
    <g id="ytick_1">
     <g id="line2d_7">
      <defs>
       <path d="M 0 0 
L -3.5 0 
" id="mf709827a07" style="stroke:#ffffff;stroke-width:0.8;"/>
      </defs>
      <g>
       <use style="fill:#ffffff;stroke:#ffffff;stroke-width:0.8;" x="56.50625" xlink:href="#mf709827a07" y="217.205431"/>
      </g>
     </g>
     <g id="text_8">
      <!-- 0.100 -->
      <defs>
       <path d="M 10.6875 12.40625 
L 21 12.40625 
L 21 0 
L 10.6875 0 
z
" id="DejaVuSans-46"/>
      </defs>
      <g style="fill:#ffffff;" transform="translate(20.878125 221.00465)scale(0.1 -0.1)">
       <use xlink:href="#DejaVuSans-48"/>
       <use x="63.623047" xlink:href="#DejaVuSans-46"/>
       <use x="95.410156" xlink:href="#DejaVuSans-49"/>
       <use x="159.033203" xlink:href="#DejaVuSans-48"/>
       <use x="222.65625" xlink:href="#DejaVuSans-48"/>
      </g>
     </g>
    </g>
    <g id="ytick_2">
     <g id="line2d_8">
      <g>
       <use style="fill:#ffffff;stroke:#ffffff;stroke-width:0.8;" x="56.50625" xlink:href="#mf709827a07" y="187.541288"/>
      </g>
     </g>
     <g id="text_9">
      <!-- 0.125 -->
      <defs>
       <path d="M 10.796875 72.90625 
L 49.515625 72.90625 
L 49.515625 64.59375 
L 19.828125 64.59375 
L 19.828125 46.734375 
Q 21.96875 47.46875 24.109375 47.828125 
Q 26.265625 48.1875 28.421875 48.1875 
Q 40.625 48.1875 47.75 41.5 
Q 54.890625 34.8125 54.890625 23.390625 
Q 54.890625 11.625 47.5625 5.09375 
Q 40.234375 -1.421875 26.90625 -1.421875 
Q 22.3125 -1.421875 17.546875 -0.640625 
Q 12.796875 0.140625 7.71875 1.703125 
L 7.71875 11.625 
Q 12.109375 9.234375 16.796875 8.0625 
Q 21.484375 6.890625 26.703125 6.890625 
Q 35.15625 6.890625 40.078125 11.328125 
Q 45.015625 15.765625 45.015625 23.390625 
Q 45.015625 31 40.078125 35.4375 
Q 35.15625 39.890625 26.703125 39.890625 
Q 22.75 39.890625 18.8125 39.015625 
Q 14.890625 38.140625 10.796875 36.28125 
z
" id="DejaVuSans-53"/>
      </defs>
      <g style="fill:#ffffff;" transform="translate(20.878125 191.340507)scale(0.1 -0.1)">
       <use xlink:href="#DejaVuSans-48"/>
       <use x="63.623047" xlink:href="#DejaVuSans-46"/>
       <use x="95.410156" xlink:href="#DejaVuSans-49"/>
       <use x="159.033203" xlink:href="#DejaVuSans-50"/>
       <use x="222.65625" xlink:href="#DejaVuSans-53"/>
      </g>
     </g>
    </g>
    <g id="ytick_3">
     <g id="line2d_9">
      <g>
       <use style="fill:#ffffff;stroke:#ffffff;stroke-width:0.8;" x="56.50625" xlink:href="#mf709827a07" y="157.877145"/>
      </g>
     </g>
     <g id="text_10">
      <!-- 0.150 -->
      <g style="fill:#ffffff;" transform="translate(20.878125 161.676364)scale(0.1 -0.1)">
       <use xlink:href="#DejaVuSans-48"/>
       <use x="63.623047" xlink:href="#DejaVuSans-46"/>
       <use x="95.410156" xlink:href="#DejaVuSans-49"/>
       <use x="159.033203" xlink:href="#DejaVuSans-53"/>
       <use x="222.65625" xlink:href="#DejaVuSans-48"/>
      </g>
     </g>
    </g>
    <g id="ytick_4">
     <g id="line2d_10">
      <g>
       <use style="fill:#ffffff;stroke:#ffffff;stroke-width:0.8;" x="56.50625" xlink:href="#mf709827a07" y="128.213003"/>
      </g>
     </g>
     <g id="text_11">
      <!-- 0.175 -->
      <defs>
       <path d="M 8.203125 72.90625 
L 55.078125 72.90625 
L 55.078125 68.703125 
L 28.609375 0 
L 18.3125 0 
L 43.21875 64.59375 
L 8.203125 64.59375 
z
" id="DejaVuSans-55"/>
      </defs>
      <g style="fill:#ffffff;" transform="translate(20.878125 132.012221)scale(0.1 -0.1)">
       <use xlink:href="#DejaVuSans-48"/>
       <use x="63.623047" xlink:href="#DejaVuSans-46"/>
       <use x="95.410156" xlink:href="#DejaVuSans-49"/>
       <use x="159.033203" xlink:href="#DejaVuSans-55"/>
       <use x="222.65625" xlink:href="#DejaVuSans-53"/>
      </g>
     </g>
    </g>
    <g id="ytick_5">
     <g id="line2d_11">
      <g>
       <use style="fill:#ffffff;stroke:#ffffff;stroke-width:0.8;" x="56.50625" xlink:href="#mf709827a07" y="98.54886"/>
      </g>
     </g>
     <g id="text_12">
      <!-- 0.200 -->
      <g style="fill:#ffffff;" transform="translate(20.878125 102.348079)scale(0.1 -0.1)">
       <use xlink:href="#DejaVuSans-48"/>
       <use x="63.623047" xlink:href="#DejaVuSans-46"/>
       <use x="95.410156" xlink:href="#DejaVuSans-50"/>
       <use x="159.033203" xlink:href="#DejaVuSans-48"/>
       <use x="222.65625" xlink:href="#DejaVuSans-48"/>
      </g>
     </g>
    </g>
    <g id="ytick_6">
     <g id="line2d_12">
      <g>
       <use style="fill:#ffffff;stroke:#ffffff;stroke-width:0.8;" x="56.50625" xlink:href="#mf709827a07" y="68.884717"/>
      </g>
     </g>
     <g id="text_13">
      <!-- 0.225 -->
      <g style="fill:#ffffff;" transform="translate(20.878125 72.683936)scale(0.1 -0.1)">
       <use xlink:href="#DejaVuSans-48"/>
       <use x="63.623047" xlink:href="#DejaVuSans-46"/>
       <use x="95.410156" xlink:href="#DejaVuSans-50"/>
       <use x="159.033203" xlink:href="#DejaVuSans-50"/>
       <use x="222.65625" xlink:href="#DejaVuSans-53"/>
      </g>
     </g>
    </g>
    <g id="ytick_7">
     <g id="line2d_13">
      <g>
       <use style="fill:#ffffff;stroke:#ffffff;stroke-width:0.8;" x="56.50625" xlink:href="#mf709827a07" y="39.220574"/>
      </g>
     </g>
     <g id="text_14">
      <!-- 0.250 -->
      <g style="fill:#ffffff;" transform="translate(20.878125 43.019793)scale(0.1 -0.1)">
       <use xlink:href="#DejaVuSans-48"/>
       <use x="63.623047" xlink:href="#DejaVuSans-46"/>
       <use x="95.410156" xlink:href="#DejaVuSans-50"/>
       <use x="159.033203" xlink:href="#DejaVuSans-53"/>
       <use x="222.65625" xlink:href="#DejaVuSans-48"/>
      </g>
     </g>
    </g>
    <g id="text_15">
     <!-- Loss -->
     <defs>
      <path d="M 9.8125 72.90625 
L 19.671875 72.90625 
L 19.671875 8.296875 
L 55.171875 8.296875 
L 55.171875 0 
L 9.8125 0 
z
" id="DejaVuSans-76"/>
      <path d="M 44.28125 53.078125 
L 44.28125 44.578125 
Q 40.484375 46.53125 36.375 47.5 
Q 32.28125 48.484375 27.875 48.484375 
Q 21.1875 48.484375 17.84375 46.4375 
Q 14.5 44.390625 14.5 40.28125 
Q 14.5 37.15625 16.890625 35.375 
Q 19.28125 33.59375 26.515625 31.984375 
L 29.59375 31.296875 
Q 39.15625 29.25 43.1875 25.515625 
Q 47.21875 21.78125 47.21875 15.09375 
Q 47.21875 7.46875 41.1875 3.015625 
Q 35.15625 -1.421875 24.609375 -1.421875 
Q 20.21875 -1.421875 15.453125 -0.5625 
Q 10.6875 0.296875 5.421875 2 
L 5.421875 11.28125 
Q 10.40625 8.6875 15.234375 7.390625 
Q 20.0625 6.109375 24.8125 6.109375 
Q 31.15625 6.109375 34.5625 8.28125 
Q 37.984375 10.453125 37.984375 14.40625 
Q 37.984375 18.0625 35.515625 20.015625 
Q 33.0625 21.96875 24.703125 23.78125 
L 21.578125 24.515625 
Q 13.234375 26.265625 9.515625 29.90625 
Q 5.8125 33.546875 5.8125 39.890625 
Q 5.8125 47.609375 11.28125 51.796875 
Q 16.75 56 26.8125 56 
Q 31.78125 56 36.171875 55.265625 
Q 40.578125 54.546875 44.28125 53.078125 
z
" id="DejaVuSans-115"/>
     </defs>
     <g style="fill:#ffffff;" transform="translate(14.798438 142.092031)rotate(-90)scale(0.1 -0.1)">
      <use xlink:href="#DejaVuSans-76"/>
      <use x="55.697266" xlink:href="#DejaVuSans-111"/>
      <use x="116.878906" xlink:href="#DejaVuSans-115"/>
      <use x="168.978516" xlink:href="#DejaVuSans-115"/>
     </g>
    </g>
   </g>
   <g id="line2d_14">
    <path clip-path="url(#pe2f3537fb9)" d="M 71.724432 38.244787 
L 72.0291 32.201761 
L 72.333768 39.139196 
L 72.638437 40.590141 
L 72.943105 40.092731 
L 73.247773 40.321224 
L 73.85711 42.217926 
L 75.68512 45.684993 
L 76.294456 47.414704 
L 76.903793 49.385366 
L 78.122466 55.661373 
L 79.036471 62.515537 
L 79.950476 71.734187 
L 80.559813 78.91864 
L 82.083154 102.152868 
L 83.606496 128.386546 
L 84.520501 142.611976 
L 85.434506 153.854119 
L 86.043842 160.321119 
L 86.34851 162.59287 
L 86.653179 165.749495 
L 87.871852 172.837602 
L 88.17652 175.657221 
L 89.090525 180.713999 
L 89.395193 183.251596 
L 89.699862 184.039365 
L 90.918535 189.318687 
L 91.223203 191.45034 
L 91.527872 192.42022 
L 91.83254 194.134845 
L 92.137208 194.541463 
L 92.746545 197.016323 
L 93.355881 199.085673 
L 93.66055 199.183495 
L 94.574555 202.781292 
L 94.879223 202.540601 
L 95.183891 204.118168 
L 95.793228 205.327497 
L 96.097896 205.596726 
L 96.402564 206.561068 
L 96.707233 206.7135 
L 97.316569 208.730697 
L 97.621238 208.496258 
L 97.925906 209.370402 
L 98.230574 209.564614 
L 98.839911 210.862841 
L 99.144579 210.755318 
L 99.449248 211.459711 
L 99.753916 211.484798 
L 100.363252 212.820825 
L 101.277257 213.415209 
L 101.581926 214.275865 
L 101.886594 213.876458 
L 102.191262 215.122112 
L 102.495931 214.593428 
L 102.800599 214.509206 
L 103.105267 215.646267 
L 103.409936 215.98767 
L 103.714604 215.550188 
L 104.019272 215.770644 
L 104.32394 216.727648 
L 104.628609 215.92461 
L 104.933277 216.557477 
L 105.237945 216.734589 
L 105.542614 216.127691 
L 105.847282 217.301992 
L 106.15195 216.194642 
L 106.456619 217.372437 
L 106.761287 217.381075 
L 107.065955 217.061635 
L 107.97996 218.126947 
L 108.589297 217.66504 
L 108.893965 218.449462 
L 109.198633 218.105421 
L 109.503302 218.699337 
L 109.80797 218.30395 
L 110.417307 218.815006 
L 110.721975 218.589801 
L 111.026643 219.445397 
L 111.331311 219.031759 
L 111.63598 219.270152 
L 111.940648 220.001984 
L 112.245316 218.57036 
L 112.549985 219.949274 
L 112.854653 219.617973 
L 113.159321 219.109281 
L 113.46399 219.683445 
L 113.768658 219.98838 
L 114.073326 219.444971 
L 114.377994 219.556834 
L 114.682663 220.082033 
L 114.987331 219.860865 
L 115.291999 219.793504 
L 115.901336 220.372657 
L 116.206004 219.916881 
L 116.510673 220.181639 
L 116.815341 221.303363 
L 117.120009 220.796991 
L 117.729346 220.737108 
L 118.034014 220.92123 
L 118.338682 220.857532 
L 118.948019 221.551139 
L 119.252687 221.18533 
L 119.862024 221.17958 
L 120.166692 220.890395 
L 120.471361 221.414835 
L 121.080697 221.507155 
L 121.385365 221.580419 
L 121.690034 221.806247 
L 122.29937 221.828189 
L 122.908707 222.38065 
L 123.518044 222.095245 
L 124.12738 221.978982 
L 124.432049 222.575644 
L 124.736717 222.246416 
L 125.041385 222.216782 
L 125.346053 222.395641 
L 125.650722 222.725321 
L 125.95539 222.614067 
L 126.260058 222.72346 
L 126.564727 222.475017 
L 127.174063 222.444939 
L 127.478732 222.72792 
L 127.7834 222.640243 
L 128.088068 222.835836 
L 128.392736 222.756072 
L 128.697405 222.079669 
L 129.002073 222.843712 
L 129.306741 222.411208 
L 129.61141 222.708793 
L 130.220746 222.794169 
L 130.830083 222.657261 
L 131.134751 222.950976 
L 131.43942 222.819067 
L 131.744088 223.470633 
L 132.048756 222.959076 
L 132.353424 222.809264 
L 132.658093 223.04838 
L 133.876766 223.167522 
L 134.181434 223.596174 
L 135.400107 223.086023 
L 135.704776 223.208841 
L 136.009444 223.475979 
L 136.314112 223.234908 
L 136.618781 223.621662 
L 136.923449 223.794717 
L 137.228117 223.3618 
L 137.532786 223.26033 
L 137.837454 224.064996 
L 138.142122 223.369511 
L 138.446791 223.445316 
L 138.751459 223.1261 
L 139.056127 224.002219 
L 140.884137 223.812397 
L 141.188805 223.603699 
L 141.493474 224.203094 
L 141.798142 223.873567 
L 142.10281 224.30597 
L 142.407479 223.878268 
L 142.712147 224.145132 
L 143.016815 223.908207 
L 143.321483 224.2377 
L 143.626152 223.987375 
L 143.93082 224.214639 
L 144.235488 223.741089 
L 144.540157 224.165016 
L 144.844825 224.398201 
L 145.149493 224.285774 
L 145.75883 223.728362 
L 146.368166 224.201962 
L 146.672835 224.281196 
L 146.977503 224.668213 
L 147.282171 224.234111 
L 147.58684 224.110814 
L 147.891508 224.397396 
L 148.196176 224.32389 
L 148.805513 224.705788 
L 149.110181 224.00524 
L 149.41485 224.346013 
L 149.719518 224.498913 
L 150.024186 224.068125 
L 150.328854 224.341998 
L 150.633523 224.367816 
L 150.938191 224.597666 
L 151.242859 224.456728 
L 151.547528 224.540811 
L 151.852196 224.994155 
L 152.461533 224.454463 
L 152.766201 225.071322 
L 153.070869 224.84229 
L 153.375537 224.802311 
L 153.680206 225.228983 
L 153.984874 224.890519 
L 154.289542 225.038179 
L 154.594211 225.056156 
L 154.898879 224.786077 
L 155.203547 225.106434 
L 155.508216 224.859987 
L 155.812884 225.113229 
L 156.117552 225.162152 
L 156.422221 225.018993 
L 156.726889 225.037405 
L 157.031557 225.19485 
L 157.336225 225.046785 
L 157.640894 224.688101 
L 157.945562 225.560375 
L 158.25023 225.096321 
L 158.554899 225.222385 
L 158.859567 224.966737 
L 159.164235 225.035339 
L 159.468904 224.725378 
L 159.773572 225.135986 
L 160.07824 224.946778 
L 160.382908 225.008792 
L 160.687577 225.22774 
L 160.992245 225.116565 
L 161.296913 225.298387 
L 161.601582 224.953811 
L 161.90625 225.299569 
L 162.210918 225.149817 
L 162.515587 225.505012 
L 162.820255 225.217658 
L 163.124923 225.360213 
L 163.429592 224.89238 
L 163.73426 224.840626 
L 164.038928 225.112348 
L 164.343596 225.216995 
L 164.648265 225.618651 
L 164.952933 224.939449 
L 165.257601 225.142014 
L 165.56227 224.815533 
L 165.866938 225.286148 
L 166.171606 225.033347 
L 166.476275 225.071102 
L 166.780943 226.022776 
L 167.085611 225.419908 
L 167.390279 225.291871 
L 167.694948 225.636936 
L 167.999616 225.404078 
L 168.304284 225.714172 
L 169.218289 225.36238 
L 169.522958 225.54307 
L 169.827626 225.576296 
L 170.132294 225.832591 
L 170.436963 225.574409 
L 170.741631 225.754401 
L 171.046299 225.575786 
L 171.350967 226.049818 
L 171.655636 225.774608 
L 171.960304 225.833797 
L 172.569641 225.643731 
L 172.874309 225.664588 
L 173.178977 225.88569 
L 173.788314 226.009628 
L 174.092982 225.279465 
L 174.702319 225.849358 
L 175.006987 225.560255 
L 175.311655 225.626945 
L 175.616324 225.894873 
L 175.920992 225.647188 
L 176.22566 225.583342 
L 176.530329 225.88257 
L 176.834997 225.939108 
L 177.444334 225.57811 
L 177.749002 226.011312 
L 178.05367 225.825546 
L 178.663007 225.680755 
L 178.967675 226.112132 
L 179.272343 225.765364 
L 179.577012 225.906753 
L 180.491017 225.892739 
L 180.795685 225.597785 
L 181.100353 226.187937 
L 181.70969 225.915576 
L 182.014358 226.016495 
L 182.319026 226.251869 
L 182.623695 225.859111 
L 183.233031 226.455106 
L 183.5377 226.081356 
L 183.842368 226.184493 
L 184.147036 226.05775 
L 184.756373 226.500446 
L 185.061041 225.86773 
L 185.365709 226.505867 
L 185.670378 226.263168 
L 185.975046 226.246939 
L 186.279714 226.35521 
L 186.584383 225.97822 
L 186.889051 226.335651 
L 187.803056 225.927401 
L 188.107724 226.647753 
L 188.412393 226.167798 
L 188.717061 226.21272 
L 189.021729 226.086541 
L 189.326397 226.278382 
L 189.631066 226.226397 
L 190.240402 226.361105 
L 190.545071 226.649178 
L 190.849739 226.246653 
L 191.763744 226.569035 
L 192.068412 226.349675 
L 192.37308 226.691056 
L 192.677749 226.2558 
L 192.982417 226.4124 
L 193.287085 226.882703 
L 193.591754 226.250548 
L 193.896422 226.541509 
L 195.724432 226.567515 
L 196.0291 226.664226 
L 196.333768 227.00419 
L 196.638437 226.636139 
L 196.943105 226.720551 
L 197.247773 226.565984 
L 197.552442 226.80895 
L 197.85711 226.451733 
L 198.161778 226.455527 
L 198.771115 226.751407 
L 199.075783 226.857161 
L 199.380451 226.508678 
L 199.68512 226.799151 
L 200.903793 226.458402 
L 201.208461 226.895973 
L 201.51313 226.460163 
L 201.817798 226.91858 
L 202.122466 226.761262 
L 202.427135 227.004452 
L 203.036471 226.562172 
L 203.341139 226.880839 
L 203.645808 226.707262 
L 203.950476 226.878533 
L 204.559813 226.634997 
L 205.169149 227.234619 
L 205.473818 226.67131 
L 206.387822 227.143735 
L 206.692491 226.612777 
L 207.301827 227.149661 
L 207.606496 226.674193 
L 207.911164 226.822532 
L 208.215832 227.300212 
L 208.825169 227.195404 
L 209.129837 227.208674 
L 209.434506 227.034952 
L 209.739174 227.132516 
L 210.043842 226.735326 
L 210.34851 226.829364 
L 210.653179 226.757929 
L 211.262515 227.467912 
L 211.567184 226.916857 
L 211.871852 226.890164 
L 212.785857 227.356535 
L 213.699862 227.007603 
L 214.00453 227.281788 
L 214.309198 227.403454 
L 214.613867 227.042749 
L 214.918535 227.022972 
L 215.527872 227.459254 
L 216.441877 226.839186 
L 216.746545 226.983187 
L 217.051213 226.949658 
L 217.66055 227.198647 
L 217.965218 227.209809 
L 218.269886 226.818768 
L 218.574555 227.292459 
L 218.879223 227.348281 
L 219.48856 227.141607 
L 219.793228 227.401061 
L 220.402564 227.181044 
L 220.707233 227.468567 
L 221.011901 227.370976 
L 221.316569 227.076433 
L 221.621238 227.361603 
L 221.925906 226.969737 
L 222.230574 227.291921 
L 222.535243 227.194138 
L 223.144579 227.395744 
L 223.449248 227.25728 
L 223.753916 227.411191 
L 224.058584 227.249508 
L 224.363252 227.467635 
L 224.667921 227.219595 
L 224.972589 227.388405 
L 225.277257 227.717247 
L 225.886594 227.305305 
L 226.191262 227.399564 
L 226.495931 227.897666 
L 226.800599 227.460515 
L 227.409936 227.218402 
L 227.714604 227.473196 
L 228.019272 227.470407 
L 228.32394 227.262337 
L 228.628609 227.484914 
L 228.933277 227.471491 
L 229.237945 227.610081 
L 229.542614 227.314535 
L 229.847282 227.478588 
L 230.761287 227.266603 
L 231.065955 227.555859 
L 231.370623 227.260953 
L 231.675292 227.571558 
L 231.97996 227.340102 
L 234.112638 227.375043 
L 234.417307 227.858036 
L 234.721975 227.368727 
L 235.026643 227.559924 
L 235.331311 227.572908 
L 235.63598 227.443025 
L 235.940648 227.145417 
L 236.245316 227.4685 
L 236.854653 227.455284 
L 237.159321 227.693465 
L 237.768658 227.549795 
L 238.073326 227.707364 
L 238.377994 227.477467 
L 238.682663 227.785163 
L 238.987331 227.456005 
L 239.291999 227.59093 
L 239.596668 227.862933 
L 239.901336 227.601549 
L 240.510673 227.930624 
L 240.815341 227.643264 
L 241.120009 227.606768 
L 241.424678 227.735795 
L 241.729346 227.705193 
L 242.034014 227.485328 
L 242.643351 227.535537 
L 242.948019 227.841347 
L 243.252687 227.850451 
L 243.557356 227.711962 
L 243.862024 227.916264 
L 244.166692 227.826973 
L 244.471361 227.38142 
L 245.080697 228.110974 
L 245.385365 227.742627 
L 245.690034 227.853514 
L 245.994702 227.716122 
L 246.604039 228.105426 
L 246.908707 227.800653 
L 247.213375 227.778479 
L 247.518044 227.937175 
L 249.041385 227.751965 
L 249.346053 227.993643 
L 249.650722 227.923285 
L 250.564727 228.067424 
L 250.869395 227.875157 
L 251.174063 228.003813 
L 252.088068 228.001468 
L 252.392736 227.791085 
L 252.697405 228.163915 
L 253.306741 227.735404 
L 253.61141 227.916332 
L 254.220746 228.065384 
L 254.830083 227.585736 
L 255.134751 228.084487 
L 255.43942 227.82517 
L 255.744088 228.08999 
L 256.353424 228.080962 
L 256.658093 227.859314 
L 256.962761 228.041165 
L 257.267429 227.922619 
L 257.572098 228.1009 
L 257.876766 228.100946 
L 258.486103 227.719712 
L 258.790771 228.084296 
L 259.095439 227.703047 
L 259.400107 228.119399 
L 259.704776 228.181633 
L 260.009444 227.95406 
L 260.314112 228.227172 
L 260.618781 228.277713 
L 261.532786 228.014788 
L 261.837454 228.269423 
L 262.142122 228.000643 
L 262.751459 228.007292 
L 263.056127 227.953097 
L 263.360795 228.371372 
L 263.665464 227.907577 
L 263.970132 228.176381 
L 264.2748 227.946325 
L 264.579469 228.297892 
L 264.884137 228.08593 
L 265.188805 228.37848 
L 265.493474 227.957766 
L 265.798142 227.801046 
L 266.407479 228.263664 
L 266.712147 228.225215 
L 267.016815 228.435022 
L 267.321483 228.165216 
L 267.626152 228.150152 
L 267.93082 228.354506 
L 268.844825 227.883757 
L 269.149493 228.479741 
L 269.454162 228.084525 
L 270.368166 228.420207 
L 270.977503 228.076516 
L 271.282171 228.665368 
L 271.58684 228.025856 
L 271.891508 228.288504 
L 272.500845 228.190207 
L 273.110181 228.394266 
L 273.41485 228.622 
L 273.719518 228.203742 
L 274.328854 228.149433 
L 274.938191 228.22478 
L 275.242859 228.021586 
L 275.547528 228.4038 
L 275.852196 228.177226 
L 276.156864 228.413932 
L 276.461533 228.033188 
L 276.766201 228.36214 
L 277.070869 227.926622 
L 277.375537 228.315022 
L 277.680206 228.259643 
L 277.984874 228.498228 
L 278.289542 228.114911 
L 278.594211 228.478455 
L 279.203547 228.567659 
L 279.812884 228.314675 
L 280.117552 228.265948 
L 280.422221 228.479621 
L 280.726889 228.273756 
L 281.031557 228.783428 
L 281.640894 228.417157 
L 281.945562 228.378275 
L 282.554899 228.596598 
L 282.859567 228.420534 
L 283.164235 228.473298 
L 283.468904 228.333403 
L 283.773572 228.531781 
L 284.07824 228.463277 
L 284.382908 228.264403 
L 284.992245 228.58085 
L 285.296913 228.379314 
L 285.601582 228.536792 
L 286.210918 228.45776 
L 286.515587 228.345794 
L 286.820255 228.422271 
L 287.124923 228.765769 
L 287.429592 228.391916 
L 288.038928 228.448918 
L 288.343596 228.806926 
L 288.648265 228.318967 
L 288.952933 228.61404 
L 289.257601 228.480891 
L 289.56227 228.481023 
L 289.866938 228.746586 
L 290.780943 228.394497 
L 291.085611 228.665911 
L 291.390279 228.211066 
L 291.694948 228.597746 
L 291.999616 228.520293 
L 292.304284 228.685206 
L 292.608953 228.46584 
L 292.913621 228.879032 
L 293.218289 228.535402 
L 293.522958 228.708229 
L 293.827626 228.375752 
L 294.132294 228.643091 
L 294.436963 228.585016 
L 295.046299 228.657847 
L 295.350967 228.456006 
L 295.655636 228.731579 
L 295.960304 228.693653 
L 296.264972 228.483636 
L 296.569641 228.681709 
L 296.874309 228.556739 
L 297.178977 228.846176 
L 297.483646 228.817164 
L 297.788314 228.483419 
L 298.39765 228.94264 
L 298.702319 228.51927 
L 299.006987 228.712552 
L 299.311655 228.589852 
L 299.616324 228.661052 
L 299.920992 228.561532 
L 300.22566 228.753707 
L 300.530329 228.570158 
L 300.834997 228.595401 
L 301.139665 228.751037 
L 301.749002 228.537506 
L 302.05367 228.729634 
L 302.358338 228.630875 
L 302.967675 228.820815 
L 303.272343 228.545029 
L 303.577012 228.863784 
L 303.88168 228.618867 
L 304.186348 228.66974 
L 304.491017 228.834306 
L 305.100353 228.670664 
L 305.405021 229.165584 
L 305.70969 228.859197 
L 306.014358 228.968741 
L 306.319026 228.676285 
L 306.623695 228.812079 
L 307.233031 228.673866 
L 307.5377 228.8277 
L 308.147036 228.631032 
L 308.451705 228.497382 
L 308.756373 228.76868 
L 309.061041 228.497482 
L 309.365709 228.970654 
L 309.975046 228.50821 
L 310.279714 228.998532 
L 310.584383 228.736368 
L 310.889051 228.703001 
L 311.193719 228.927689 
L 311.498388 228.696301 
L 311.803056 228.800726 
L 312.107724 228.605847 
L 312.412393 228.87926 
L 312.717061 228.93584 
L 313.021729 228.850374 
L 313.326397 229.056788 
L 313.935734 228.731226 
L 314.240402 228.842007 
L 314.545071 228.732079 
L 314.849739 228.956662 
L 315.459076 228.753002 
L 315.763744 228.839955 
L 316.068412 229.133574 
L 316.37308 228.966925 
L 316.677749 229.063715 
L 316.982417 228.921257 
L 317.591754 228.92418 
L 317.896422 228.634536 
L 318.20109 229.099496 
L 318.505759 228.765996 
L 318.810427 228.966785 
L 319.115095 228.907428 
L 319.419764 229.19287 
L 319.724432 228.609433 
L 320.0291 228.8028 
L 320.333768 228.8391 
L 320.638437 229.111062 
L 321.247773 228.714463 
L 321.85711 229.107351 
L 322.771115 228.821468 
L 323.075783 229.136624 
L 323.380451 228.830553 
L 323.989788 228.878489 
L 324.294456 229.018293 
L 325.208461 228.934574 
L 325.51313 229.115488 
L 325.817798 228.813471 
L 326.731803 229.12832 
L 327.036471 229.094889 
L 327.341139 228.917466 
L 327.645808 229.040783 
L 327.950476 228.854561 
L 328.255144 229.15047 
L 328.559813 229.018862 
L 328.864481 229.348475 
L 329.169149 229.052697 
L 329.473818 228.935253 
L 329.778486 229.175684 
L 330.083154 229.146191 
L 330.387822 228.776808 
L 330.997159 229.026665 
L 331.301827 228.871218 
L 331.606496 229.025894 
L 331.911164 229.413623 
L 332.215832 229.397186 
L 332.520501 229.123899 
L 333.129837 228.905458 
L 333.434506 229.283198 
L 333.739174 229.026621 
L 334.043842 229.330615 
L 334.34851 229.090755 
L 334.653179 229.027247 
L 334.957847 229.381116 
L 335.567184 229.03251 
L 335.871852 229.139215 
L 336.17652 229.001262 
L 336.481189 229.069611 
L 336.785857 228.990679 
L 337.090525 229.182008 
L 337.395193 228.99184 
L 337.699862 229.142673 
L 338.00453 229.443632 
L 338.309198 229.022856 
L 338.613867 229.174572 
L 339.223203 229.016625 
L 339.527872 229.19123 
L 340.441877 229.218548 
L 340.746545 229.5089 
L 341.355881 229.068848 
L 342.269886 229.390994 
L 342.574555 229.142605 
L 342.879223 229.459523 
L 343.183891 229.311642 
L 343.48856 228.999407 
L 343.793228 229.110603 
L 344.097896 228.992488 
L 344.402564 229.297623 
L 344.707233 229.366175 
L 345.011901 229.27626 
L 345.621238 229.24717 
L 346.535243 229.143577 
L 346.839911 229.362111 
L 347.144579 229.140923 
L 347.753916 229.457528 
L 348.058584 228.928324 
L 348.363252 229.380799 
L 348.667921 229.523937 
L 349.277257 229.242449 
L 349.581926 229.454316 
L 349.886594 229.242963 
L 350.800599 229.482695 
L 351.105267 229.231684 
L 351.409936 229.396531 
L 351.714604 229.259023 
L 352.019272 229.281379 
L 352.32394 229.446009 
L 352.628609 229.386837 
L 352.933277 229.21231 
L 353.542614 229.38905 
L 353.847282 229.19571 
L 354.15195 229.350589 
L 354.456619 229.209696 
L 354.761287 229.329473 
L 355.065955 229.100543 
L 355.370623 229.387761 
L 355.97996 229.165602 
L 356.284628 229.642729 
L 356.589297 229.013493 
L 356.893965 229.355382 
L 357.198633 229.307048 
L 357.503302 229.099574 
L 357.80797 229.233232 
L 358.112638 229.233549 
L 358.721975 229.417043 
L 359.331311 229.521486 
L 360.245316 229.396012 
L 360.549985 229.339214 
L 360.854653 229.547964 
L 361.768658 229.238777 
L 362.377994 229.393649 
L 362.987331 229.306725 
L 363.291999 229.54847 
L 363.596668 229.454853 
L 364.206004 229.568205 
L 364.510673 229.434863 
L 364.815341 229.086607 
L 365.120009 229.404818 
L 365.424678 229.544472 
L 365.729346 229.34936 
L 366.034014 229.48545 
L 366.338682 229.469699 
L 366.643351 229.336223 
L 367.862024 229.523603 
L 368.166692 229.40981 
L 369.080697 229.59074 
L 369.385365 229.539031 
L 369.690034 229.600727 
L 369.994702 229.874489 
L 370.29937 229.747722 
L 370.604039 229.486545 
L 371.213375 229.72219 
L 371.822712 229.40711 
L 372.432049 229.797662 
L 372.736717 229.705685 
L 373.041385 229.361612 
L 373.346053 229.805025 
L 373.650722 229.555558 
L 373.95539 229.608634 
L 374.260058 229.48349 
L 374.869395 229.603982 
L 375.7834 229.608118 
L 376.088068 229.756367 
L 376.088068 229.756367 
" style="fill:none;stroke:#8dd3c7;stroke-linecap:square;stroke-width:1.5;"/>
   </g>
   <g id="patch_3">
    <path d="M 56.50625 239.758125 
L 56.50625 22.318125 
" style="fill:none;stroke:#ffffff;stroke-linecap:square;stroke-linejoin:miter;stroke-width:0.8;"/>
   </g>
   <g id="patch_4">
    <path d="M 391.30625 239.758125 
L 391.30625 22.318125 
" style="fill:none;stroke:#ffffff;stroke-linecap:square;stroke-linejoin:miter;stroke-width:0.8;"/>
   </g>
   <g id="patch_5">
    <path d="M 56.50625 239.758125 
L 391.30625 239.758125 
" style="fill:none;stroke:#ffffff;stroke-linecap:square;stroke-linejoin:miter;stroke-width:0.8;"/>
   </g>
   <g id="patch_6">
    <path d="M 56.50625 22.318125 
L 391.30625 22.318125 
" style="fill:none;stroke:#ffffff;stroke-linecap:square;stroke-linejoin:miter;stroke-width:0.8;"/>
   </g>
   <g id="text_16">
    <!-- BCE loss per epoch -->
    <defs>
     <path d="M 19.671875 34.8125 
L 19.671875 8.109375 
L 35.5 8.109375 
Q 43.453125 8.109375 47.28125 11.40625 
Q 51.125 14.703125 51.125 21.484375 
Q 51.125 28.328125 47.28125 31.5625 
Q 43.453125 34.8125 35.5 34.8125 
z
M 19.671875 64.796875 
L 19.671875 42.828125 
L 34.28125 42.828125 
Q 41.5 42.828125 45.03125 45.53125 
Q 48.578125 48.25 48.578125 53.8125 
Q 48.578125 59.328125 45.03125 62.0625 
Q 41.5 64.796875 34.28125 64.796875 
z
M 9.8125 72.90625 
L 35.015625 72.90625 
Q 46.296875 72.90625 52.390625 68.21875 
Q 58.5 63.53125 58.5 54.890625 
Q 58.5 48.1875 55.375 44.234375 
Q 52.25 40.28125 46.1875 39.3125 
Q 53.46875 37.75 57.5 32.78125 
Q 61.53125 27.828125 61.53125 20.40625 
Q 61.53125 10.640625 54.890625 5.3125 
Q 48.25 0 35.984375 0 
L 9.8125 0 
z
" id="DejaVuSans-66"/>
     <path d="M 64.40625 67.28125 
L 64.40625 56.890625 
Q 59.421875 61.53125 53.78125 63.8125 
Q 48.140625 66.109375 41.796875 66.109375 
Q 29.296875 66.109375 22.65625 58.46875 
Q 16.015625 50.828125 16.015625 36.375 
Q 16.015625 21.96875 22.65625 14.328125 
Q 29.296875 6.6875 41.796875 6.6875 
Q 48.140625 6.6875 53.78125 8.984375 
Q 59.421875 11.28125 64.40625 15.921875 
L 64.40625 5.609375 
Q 59.234375 2.09375 53.4375 0.328125 
Q 47.65625 -1.421875 41.21875 -1.421875 
Q 24.65625 -1.421875 15.125 8.703125 
Q 5.609375 18.84375 5.609375 36.375 
Q 5.609375 53.953125 15.125 64.078125 
Q 24.65625 74.21875 41.21875 74.21875 
Q 47.75 74.21875 53.53125 72.484375 
Q 59.328125 70.75 64.40625 67.28125 
z
" id="DejaVuSans-67"/>
     <path id="DejaVuSans-32"/>
     <path d="M 9.421875 75.984375 
L 18.40625 75.984375 
L 18.40625 0 
L 9.421875 0 
z
" id="DejaVuSans-108"/>
     <path d="M 56.203125 29.59375 
L 56.203125 25.203125 
L 14.890625 25.203125 
Q 15.484375 15.921875 20.484375 11.0625 
Q 25.484375 6.203125 34.421875 6.203125 
Q 39.59375 6.203125 44.453125 7.46875 
Q 49.3125 8.734375 54.109375 11.28125 
L 54.109375 2.78125 
Q 49.265625 0.734375 44.1875 -0.34375 
Q 39.109375 -1.421875 33.890625 -1.421875 
Q 20.796875 -1.421875 13.15625 6.1875 
Q 5.515625 13.8125 5.515625 26.8125 
Q 5.515625 40.234375 12.765625 48.109375 
Q 20.015625 56 32.328125 56 
Q 43.359375 56 49.78125 48.890625 
Q 56.203125 41.796875 56.203125 29.59375 
z
M 47.21875 32.234375 
Q 47.125 39.59375 43.09375 43.984375 
Q 39.0625 48.390625 32.421875 48.390625 
Q 24.90625 48.390625 20.390625 44.140625 
Q 15.875 39.890625 15.1875 32.171875 
z
" id="DejaVuSans-101"/>
     <path d="M 41.109375 46.296875 
Q 39.59375 47.171875 37.8125 47.578125 
Q 36.03125 48 33.890625 48 
Q 26.265625 48 22.1875 43.046875 
Q 18.109375 38.09375 18.109375 28.8125 
L 18.109375 0 
L 9.078125 0 
L 9.078125 54.6875 
L 18.109375 54.6875 
L 18.109375 46.1875 
Q 20.953125 51.171875 25.484375 53.578125 
Q 30.03125 56 36.53125 56 
Q 37.453125 56 38.578125 55.875 
Q 39.703125 55.765625 41.0625 55.515625 
z
" id="DejaVuSans-114"/>
    </defs>
    <g style="fill:#ffffff;" transform="translate(166.258438 16.318125)scale(0.12 -0.12)">
     <use xlink:href="#DejaVuSans-66"/>
     <use x="68.587891" xlink:href="#DejaVuSans-67"/>
     <use x="138.412109" xlink:href="#DejaVuSans-69"/>
     <use x="201.595703" xlink:href="#DejaVuSans-32"/>
     <use x="233.382812" xlink:href="#DejaVuSans-108"/>
     <use x="261.166016" xlink:href="#DejaVuSans-111"/>
     <use x="322.347656" xlink:href="#DejaVuSans-115"/>
     <use x="374.447266" xlink:href="#DejaVuSans-115"/>
     <use x="426.546875" xlink:href="#DejaVuSans-32"/>
     <use x="458.333984" xlink:href="#DejaVuSans-112"/>
     <use x="521.810547" xlink:href="#DejaVuSans-101"/>
     <use x="583.333984" xlink:href="#DejaVuSans-114"/>
     <use x="624.447266" xlink:href="#DejaVuSans-32"/>
     <use x="656.234375" xlink:href="#DejaVuSans-101"/>
     <use x="717.757812" xlink:href="#DejaVuSans-112"/>
     <use x="781.234375" xlink:href="#DejaVuSans-111"/>
     <use x="842.416016" xlink:href="#DejaVuSans-99"/>
     <use x="897.396484" xlink:href="#DejaVuSans-104"/>
    </g>
   </g>
  </g>
 </g>
 <defs>
  <clipPath id="pe2f3537fb9">
   <rect height="217.44" width="334.8" x="56.50625" y="22.318125"/>
  </clipPath>
 </defs>
</svg>
