<?xml version="1.0" encoding="utf-8" standalone="no"?>
<!DOCTYPE svg PUBLIC "-//W3C//DTD SVG 1.1//EN"
  "http://www.w3.org/Graphics/SVG/1.1/DTD/svg11.dtd">
<!-- Created with matplotlib (https://matplotlib.org/) -->
<svg height="290.75175pt" version="1.1" viewBox="0 0 388.965625 290.75175" width="388.965625pt" xmlns="http://www.w3.org/2000/svg" xmlns:xlink="http://www.w3.org/1999/xlink">
 <defs>
  <style type="text/css">
*{stroke-linecap:butt;stroke-linejoin:round;}
  </style>
 </defs>
 <g id="figure_1">
  <g id="patch_1">
   <path d="M 0 290.75175 
L 388.965625 290.75175 
L 388.965625 0 
L 0 0 
z
"/>
  </g>
  <g id="axes_1">
   <g id="patch_2">
    <path d="M 46.965625 253.1955 
L 381.765625 253.1955 
L 381.765625 35.7555 
L 46.965625 35.7555 
z
"/>
   </g>
   <g id="patch_3">
    <path clip-path="url(#p8889117c55)" d="M 62.183807 253.1955 
L 64.752276 253.1955 
L 64.752276 172.757247 
L 62.183807 172.757247 
z
" style="fill:#8dd3c7;"/>
   </g>
   <g id="patch_4">
    <path clip-path="url(#p8889117c55)" d="M 65.394394 253.1955 
L 67.962863 253.1955 
L 67.962863 155.642726 
L 65.394394 155.642726 
z
" style="fill:#8dd3c7;"/>
   </g>
   <g id="patch_5">
    <path clip-path="url(#p8889117c55)" d="M 68.604981 253.1955 
L 71.17345 253.1955 
L 71.17345 174.4687 
L 68.604981 174.4687 
z
" style="fill:#8dd3c7;"/>
   </g>
   <g id="patch_6">
    <path clip-path="url(#p8889117c55)" d="M 71.815567 253.1955 
L 74.384037 253.1955 
L 74.384037 155.642726 
L 71.815567 155.642726 
z
" style="fill:#8dd3c7;"/>
   </g>
   <g id="patch_7">
    <path clip-path="url(#p8889117c55)" d="M 75.026154 253.1955 
L 77.594624 253.1955 
L 77.594624 143.66256 
L 75.026154 143.66256 
z
" style="fill:#8dd3c7;"/>
   </g>
   <g id="patch_8">
    <path clip-path="url(#p8889117c55)" d="M 78.236741 253.1955 
L 80.805211 253.1955 
L 80.805211 169.334343 
L 78.236741 169.334343 
z
" style="fill:#8dd3c7;"/>
   </g>
   <g id="patch_9">
    <path clip-path="url(#p8889117c55)" d="M 81.447328 253.1955 
L 84.015798 253.1955 
L 84.015798 162.488534 
L 81.447328 162.488534 
z
" style="fill:#8dd3c7;"/>
   </g>
   <g id="patch_10">
    <path clip-path="url(#p8889117c55)" d="M 84.657915 253.1955 
L 87.226384 253.1955 
L 87.226384 167.622891 
L 84.657915 167.622891 
z
" style="fill:#8dd3c7;"/>
   </g>
   <g id="patch_11">
    <path clip-path="url(#p8889117c55)" d="M 87.868502 253.1955 
L 90.436971 253.1955 
L 90.436971 159.06563 
L 87.868502 159.06563 
z
" style="fill:#8dd3c7;"/>
   </g>
   <g id="patch_12">
    <path clip-path="url(#p8889117c55)" d="M 91.079089 253.1955 
L 93.647558 253.1955 
L 93.647558 153.931273 
L 91.079089 153.931273 
z
" style="fill:#8dd3c7;"/>
   </g>
   <g id="patch_13">
    <path clip-path="url(#p8889117c55)" d="M 94.289676 253.1955 
L 96.858145 253.1955 
L 96.858145 172.757247 
L 94.289676 172.757247 
z
" style="fill:#8dd3c7;"/>
   </g>
   <g id="patch_14">
    <path clip-path="url(#p8889117c55)" d="M 97.500263 253.1955 
L 100.068732 253.1955 
L 100.068732 172.757247 
L 97.500263 172.757247 
z
" style="fill:#8dd3c7;"/>
   </g>
   <g id="patch_15">
    <path clip-path="url(#p8889117c55)" d="M 100.710849 253.1955 
L 103.279319 253.1955 
L 103.279319 157.354178 
L 100.710849 157.354178 
z
" style="fill:#8dd3c7;"/>
   </g>
   <g id="patch_16">
    <path clip-path="url(#p8889117c55)" d="M 103.921436 253.1955 
L 106.489906 253.1955 
L 106.489906 152.219821 
L 103.921436 152.219821 
z
" style="fill:#8dd3c7;"/>
   </g>
   <g id="patch_17">
    <path clip-path="url(#p8889117c55)" d="M 107.132023 253.1955 
L 109.700493 253.1955 
L 109.700493 90.607543 
L 107.132023 90.607543 
z
" style="fill:#8dd3c7;"/>
   </g>
   <g id="patch_18">
    <path clip-path="url(#p8889117c55)" d="M 110.34261 253.1955 
L 112.91108 253.1955 
L 112.91108 155.642726 
L 110.34261 155.642726 
z
" style="fill:#8dd3c7;"/>
   </g>
   <g id="patch_19">
    <path clip-path="url(#p8889117c55)" d="M 113.553197 253.1955 
L 116.121666 253.1955 
L 116.121666 188.160317 
L 113.553197 188.160317 
z
" style="fill:#8dd3c7;"/>
   </g>
   <g id="patch_20">
    <path clip-path="url(#p8889117c55)" d="M 116.763784 253.1955 
L 119.332253 253.1955 
L 119.332253 155.642726 
L 116.763784 155.642726 
z
" style="fill:#8dd3c7;"/>
   </g>
   <g id="patch_21">
    <path clip-path="url(#p8889117c55)" d="M 119.974371 253.1955 
L 122.54284 253.1955 
L 122.54284 171.045795 
L 119.974371 171.045795 
z
" style="fill:#8dd3c7;"/>
   </g>
   <g id="patch_22">
    <path clip-path="url(#p8889117c55)" d="M 123.184958 253.1955 
L 125.753427 253.1955 
L 125.753427 152.219821 
L 123.184958 152.219821 
z
" style="fill:#8dd3c7;"/>
   </g>
   <g id="patch_23">
    <path clip-path="url(#p8889117c55)" d="M 126.395544 253.1955 
L 128.964014 253.1955 
L 128.964014 162.488534 
L 126.395544 162.488534 
z
" style="fill:#8dd3c7;"/>
   </g>
   <g id="patch_24">
    <path clip-path="url(#p8889117c55)" d="M 129.606131 253.1955 
L 132.174601 253.1955 
L 132.174601 143.66256 
L 129.606131 143.66256 
z
" style="fill:#8dd3c7;"/>
   </g>
   <g id="patch_25">
    <path clip-path="url(#p8889117c55)" d="M 132.816718 253.1955 
L 135.385188 253.1955 
L 135.385188 177.891604 
L 132.816718 177.891604 
z
" style="fill:#8dd3c7;"/>
   </g>
   <g id="patch_26">
    <path clip-path="url(#p8889117c55)" d="M 136.027305 253.1955 
L 138.595775 253.1955 
L 138.595775 174.4687 
L 136.027305 174.4687 
z
" style="fill:#8dd3c7;"/>
   </g>
   <g id="patch_27">
    <path clip-path="url(#p8889117c55)" d="M 139.237892 253.1955 
L 141.806361 253.1955 
L 141.806361 143.66256 
L 139.237892 143.66256 
z
" style="fill:#8dd3c7;"/>
   </g>
   <g id="patch_28">
    <path clip-path="url(#p8889117c55)" d="M 142.448479 253.1955 
L 145.016948 253.1955 
L 145.016948 179.603056 
L 142.448479 179.603056 
z
" style="fill:#8dd3c7;"/>
   </g>
   <g id="patch_29">
    <path clip-path="url(#p8889117c55)" d="M 145.659066 253.1955 
L 148.227535 253.1955 
L 148.227535 167.622891 
L 145.659066 167.622891 
z
" style="fill:#8dd3c7;"/>
   </g>
   <g id="patch_30">
    <path clip-path="url(#p8889117c55)" d="M 148.869653 253.1955 
L 151.438122 253.1955 
L 151.438122 153.931273 
L 148.869653 153.931273 
z
" style="fill:#8dd3c7;"/>
   </g>
   <g id="patch_31">
    <path clip-path="url(#p8889117c55)" d="M 152.080239 253.1955 
L 154.648709 253.1955 
L 154.648709 147.085465 
L 152.080239 147.085465 
z
" style="fill:#8dd3c7;"/>
   </g>
   <g id="patch_32">
    <path clip-path="url(#p8889117c55)" d="M 155.290826 253.1955 
L 157.859296 253.1955 
L 157.859296 176.180152 
L 155.290826 176.180152 
z
" style="fill:#8dd3c7;"/>
   </g>
   <g id="patch_33">
    <path clip-path="url(#p8889117c55)" d="M 158.501413 253.1955 
L 161.069883 253.1955 
L 161.069883 147.085465 
L 158.501413 147.085465 
z
" style="fill:#8dd3c7;"/>
   </g>
   <g id="patch_34">
    <path clip-path="url(#p8889117c55)" d="M 161.712 253.1955 
L 164.28047 253.1955 
L 164.28047 162.488534 
L 161.712 162.488534 
z
" style="fill:#8dd3c7;"/>
   </g>
   <g id="patch_35">
    <path clip-path="url(#p8889117c55)" d="M 164.922587 253.1955 
L 167.491057 253.1955 
L 167.491057 174.4687 
L 164.922587 174.4687 
z
" style="fill:#8dd3c7;"/>
   </g>
   <g id="patch_36">
    <path clip-path="url(#p8889117c55)" d="M 168.133174 253.1955 
L 170.701643 253.1955 
L 170.701643 83.761734 
L 168.133174 83.761734 
z
" style="fill:#8dd3c7;"/>
   </g>
   <g id="patch_37">
    <path clip-path="url(#p8889117c55)" d="M 171.343761 253.1955 
L 173.91223 253.1955 
L 173.91223 177.891604 
L 171.343761 177.891604 
z
" style="fill:#8dd3c7;"/>
   </g>
   <g id="patch_38">
    <path clip-path="url(#p8889117c55)" d="M 174.554348 253.1955 
L 177.122817 253.1955 
L 177.122817 160.777082 
L 174.554348 160.777082 
z
" style="fill:#8dd3c7;"/>
   </g>
   <g id="patch_39">
    <path clip-path="url(#p8889117c55)" d="M 177.764935 253.1955 
L 180.333404 253.1955 
L 180.333404 179.603056 
L 177.764935 179.603056 
z
" style="fill:#8dd3c7;"/>
   </g>
   <g id="patch_40">
    <path clip-path="url(#p8889117c55)" d="M 180.975521 253.1955 
L 183.543991 253.1955 
L 183.543991 165.911439 
L 180.975521 165.911439 
z
" style="fill:#8dd3c7;"/>
   </g>
   <g id="patch_41">
    <path clip-path="url(#p8889117c55)" d="M 184.186108 253.1955 
L 186.754578 253.1955 
L 186.754578 157.354178 
L 184.186108 157.354178 
z
" style="fill:#8dd3c7;"/>
   </g>
   <g id="patch_42">
    <path clip-path="url(#p8889117c55)" d="M 187.396695 253.1955 
L 189.965165 253.1955 
L 189.965165 160.777082 
L 187.396695 160.777082 
z
" style="fill:#8dd3c7;"/>
   </g>
   <g id="patch_43">
    <path clip-path="url(#p8889117c55)" d="M 190.607282 253.1955 
L 193.175752 253.1955 
L 193.175752 155.642726 
L 190.607282 155.642726 
z
" style="fill:#8dd3c7;"/>
   </g>
   <g id="patch_44">
    <path clip-path="url(#p8889117c55)" d="M 193.817869 253.1955 
L 196.386338 253.1955 
L 196.386338 148.796917 
L 193.817869 148.796917 
z
" style="fill:#8dd3c7;"/>
   </g>
   <g id="patch_45">
    <path clip-path="url(#p8889117c55)" d="M 197.028456 253.1955 
L 199.596925 253.1955 
L 199.596925 177.891604 
L 197.028456 177.891604 
z
" style="fill:#8dd3c7;"/>
   </g>
   <g id="patch_46">
    <path clip-path="url(#p8889117c55)" d="M 200.239043 253.1955 
L 202.807512 253.1955 
L 202.807512 184.737413 
L 200.239043 184.737413 
z
" style="fill:#8dd3c7;"/>
   </g>
   <g id="patch_47">
    <path clip-path="url(#p8889117c55)" d="M 203.44963 253.1955 
L 206.018099 253.1955 
L 206.018099 169.334343 
L 203.44963 169.334343 
z
" style="fill:#8dd3c7;"/>
   </g>
   <g id="patch_48">
    <path clip-path="url(#p8889117c55)" d="M 206.660216 253.1955 
L 209.228686 253.1955 
L 209.228686 183.02596 
L 206.660216 183.02596 
z
" style="fill:#8dd3c7;"/>
   </g>
   <g id="patch_49">
    <path clip-path="url(#p8889117c55)" d="M 209.870803 253.1955 
L 212.439273 253.1955 
L 212.439273 145.374012 
L 209.870803 145.374012 
z
" style="fill:#8dd3c7;"/>
   </g>
   <g id="patch_50">
    <path clip-path="url(#p8889117c55)" d="M 213.08139 253.1955 
L 215.64986 253.1955 
L 215.64986 177.891604 
L 213.08139 177.891604 
z
" style="fill:#8dd3c7;"/>
   </g>
   <g id="patch_51">
    <path clip-path="url(#p8889117c55)" d="M 216.291977 253.1955 
L 218.860447 253.1955 
L 218.860447 171.045795 
L 216.291977 171.045795 
z
" style="fill:#8dd3c7;"/>
   </g>
   <g id="patch_52">
    <path clip-path="url(#p8889117c55)" d="M 219.502564 253.1955 
L 222.071034 253.1955 
L 222.071034 145.374012 
L 219.502564 145.374012 
z
" style="fill:#8dd3c7;"/>
   </g>
   <g id="patch_53">
    <path clip-path="url(#p8889117c55)" d="M 222.713151 253.1955 
L 225.28162 253.1955 
L 225.28162 145.374012 
L 222.713151 145.374012 
z
" style="fill:#8dd3c7;"/>
   </g>
   <g id="patch_54">
    <path clip-path="url(#p8889117c55)" d="M 225.923738 253.1955 
L 228.492207 253.1955 
L 228.492207 157.354178 
L 225.923738 157.354178 
z
" style="fill:#8dd3c7;"/>
   </g>
   <g id="patch_55">
    <path clip-path="url(#p8889117c55)" d="M 229.134325 253.1955 
L 231.702794 253.1955 
L 231.702794 75.204473 
L 229.134325 75.204473 
z
" style="fill:#8dd3c7;"/>
   </g>
   <g id="patch_56">
    <path clip-path="url(#p8889117c55)" d="M 232.344912 253.1955 
L 234.913381 253.1955 
L 234.913381 169.334343 
L 232.344912 169.334343 
z
" style="fill:#8dd3c7;"/>
   </g>
   <g id="patch_57">
    <path clip-path="url(#p8889117c55)" d="M 235.555498 253.1955 
L 238.123968 253.1955 
L 238.123968 162.488534 
L 235.555498 162.488534 
z
" style="fill:#8dd3c7;"/>
   </g>
   <g id="patch_58">
    <path clip-path="url(#p8889117c55)" d="M 238.766085 253.1955 
L 241.334555 253.1955 
L 241.334555 160.777082 
L 238.766085 160.777082 
z
" style="fill:#8dd3c7;"/>
   </g>
   <g id="patch_59">
    <path clip-path="url(#p8889117c55)" d="M 241.976672 253.1955 
L 244.545142 253.1955 
L 244.545142 183.02596 
L 241.976672 183.02596 
z
" style="fill:#8dd3c7;"/>
   </g>
   <g id="patch_60">
    <path clip-path="url(#p8889117c55)" d="M 245.187259 253.1955 
L 247.755729 253.1955 
L 247.755729 155.642726 
L 245.187259 155.642726 
z
" style="fill:#8dd3c7;"/>
   </g>
   <g id="patch_61">
    <path clip-path="url(#p8889117c55)" d="M 248.397846 253.1955 
L 250.966315 253.1955 
L 250.966315 177.891604 
L 248.397846 177.891604 
z
" style="fill:#8dd3c7;"/>
   </g>
   <g id="patch_62">
    <path clip-path="url(#p8889117c55)" d="M 251.608433 253.1955 
L 254.176902 253.1955 
L 254.176902 157.354178 
L 251.608433 157.354178 
z
" style="fill:#8dd3c7;"/>
   </g>
   <g id="patch_63">
    <path clip-path="url(#p8889117c55)" d="M 254.81902 253.1955 
L 257.387489 253.1955 
L 257.387489 147.085465 
L 254.81902 147.085465 
z
" style="fill:#8dd3c7;"/>
   </g>
   <g id="patch_64">
    <path clip-path="url(#p8889117c55)" d="M 258.029607 253.1955 
L 260.598076 253.1955 
L 260.598076 159.06563 
L 258.029607 159.06563 
z
" style="fill:#8dd3c7;"/>
   </g>
   <g id="patch_65">
    <path clip-path="url(#p8889117c55)" d="M 261.240193 253.1955 
L 263.808663 253.1955 
L 263.808663 165.911439 
L 261.240193 165.911439 
z
" style="fill:#8dd3c7;"/>
   </g>
   <g id="patch_66">
    <path clip-path="url(#p8889117c55)" d="M 264.45078 253.1955 
L 267.01925 253.1955 
L 267.01925 150.508369 
L 264.45078 150.508369 
z
" style="fill:#8dd3c7;"/>
   </g>
   <g id="patch_67">
    <path clip-path="url(#p8889117c55)" d="M 267.661367 253.1955 
L 270.229837 253.1955 
L 270.229837 159.06563 
L 267.661367 159.06563 
z
" style="fill:#8dd3c7;"/>
   </g>
   <g id="patch_68">
    <path clip-path="url(#p8889117c55)" d="M 270.871954 253.1955 
L 273.440424 253.1955 
L 273.440424 164.199986 
L 270.871954 164.199986 
z
" style="fill:#8dd3c7;"/>
   </g>
   <g id="patch_69">
    <path clip-path="url(#p8889117c55)" d="M 274.082541 253.1955 
L 276.651011 253.1955 
L 276.651011 169.334343 
L 274.082541 169.334343 
z
" style="fill:#8dd3c7;"/>
   </g>
   <g id="patch_70">
    <path clip-path="url(#p8889117c55)" d="M 277.293128 253.1955 
L 279.861597 253.1955 
L 279.861597 179.603056 
L 277.293128 179.603056 
z
" style="fill:#8dd3c7;"/>
   </g>
   <g id="patch_71">
    <path clip-path="url(#p8889117c55)" d="M 280.503715 253.1955 
L 283.072184 253.1955 
L 283.072184 174.4687 
L 280.503715 174.4687 
z
" style="fill:#8dd3c7;"/>
   </g>
   <g id="patch_72">
    <path clip-path="url(#p8889117c55)" d="M 283.714302 253.1955 
L 286.282771 253.1955 
L 286.282771 165.911439 
L 283.714302 165.911439 
z
" style="fill:#8dd3c7;"/>
   </g>
   <g id="patch_73">
    <path clip-path="url(#p8889117c55)" d="M 286.924889 253.1955 
L 289.493358 253.1955 
L 289.493358 172.757247 
L 286.924889 172.757247 
z
" style="fill:#8dd3c7;"/>
   </g>
   <g id="patch_74">
    <path clip-path="url(#p8889117c55)" d="M 290.135475 253.1955 
L 292.703945 253.1955 
L 292.703945 71.781568 
L 290.135475 71.781568 
z
" style="fill:#8dd3c7;"/>
   </g>
   <g id="patch_75">
    <path clip-path="url(#p8889117c55)" d="M 293.346062 253.1955 
L 295.914532 253.1955 
L 295.914532 167.622891 
L 293.346062 167.622891 
z
" style="fill:#8dd3c7;"/>
   </g>
   <g id="patch_76">
    <path clip-path="url(#p8889117c55)" d="M 296.556649 253.1955 
L 299.125119 253.1955 
L 299.125119 176.180152 
L 296.556649 176.180152 
z
" style="fill:#8dd3c7;"/>
   </g>
   <g id="patch_77">
    <path clip-path="url(#p8889117c55)" d="M 299.767236 253.1955 
L 302.335706 253.1955 
L 302.335706 155.642726 
L 299.767236 155.642726 
z
" style="fill:#8dd3c7;"/>
   </g>
   <g id="patch_78">
    <path clip-path="url(#p8889117c55)" d="M 302.977823 253.1955 
L 305.546292 253.1955 
L 305.546292 160.777082 
L 302.977823 160.777082 
z
" style="fill:#8dd3c7;"/>
   </g>
   <g id="patch_79">
    <path clip-path="url(#p8889117c55)" d="M 306.18841 253.1955 
L 308.756879 253.1955 
L 308.756879 174.4687 
L 306.18841 174.4687 
z
" style="fill:#8dd3c7;"/>
   </g>
   <g id="patch_80">
    <path clip-path="url(#p8889117c55)" d="M 309.398997 253.1955 
L 311.967466 253.1955 
L 311.967466 152.219821 
L 309.398997 152.219821 
z
" style="fill:#8dd3c7;"/>
   </g>
   <g id="patch_81">
    <path clip-path="url(#p8889117c55)" d="M 312.609584 253.1955 
L 315.178053 253.1955 
L 315.178053 148.796917 
L 312.609584 148.796917 
z
" style="fill:#8dd3c7;"/>
   </g>
   <g id="patch_82">
    <path clip-path="url(#p8889117c55)" d="M 315.82017 253.1955 
L 318.38864 253.1955 
L 318.38864 155.642726 
L 315.82017 155.642726 
z
" style="fill:#8dd3c7;"/>
   </g>
   <g id="patch_83">
    <path clip-path="url(#p8889117c55)" d="M 319.030757 253.1955 
L 321.599227 253.1955 
L 321.599227 167.622891 
L 319.030757 167.622891 
z
" style="fill:#8dd3c7;"/>
   </g>
   <g id="patch_84">
    <path clip-path="url(#p8889117c55)" d="M 322.241344 253.1955 
L 324.809814 253.1955 
L 324.809814 160.777082 
L 322.241344 160.777082 
z
" style="fill:#8dd3c7;"/>
   </g>
   <g id="patch_85">
    <path clip-path="url(#p8889117c55)" d="M 325.451931 253.1955 
L 328.020401 253.1955 
L 328.020401 152.219821 
L 325.451931 152.219821 
z
" style="fill:#8dd3c7;"/>
   </g>
   <g id="patch_86">
    <path clip-path="url(#p8889117c55)" d="M 328.662518 253.1955 
L 331.230987 253.1955 
L 331.230987 177.891604 
L 328.662518 177.891604 
z
" style="fill:#8dd3c7;"/>
   </g>
   <g id="patch_87">
    <path clip-path="url(#p8889117c55)" d="M 331.873105 253.1955 
L 334.441574 253.1955 
L 334.441574 195.006126 
L 331.873105 195.006126 
z
" style="fill:#8dd3c7;"/>
   </g>
   <g id="patch_88">
    <path clip-path="url(#p8889117c55)" d="M 335.083692 253.1955 
L 337.652161 253.1955 
L 337.652161 174.4687 
L 335.083692 174.4687 
z
" style="fill:#8dd3c7;"/>
   </g>
   <g id="patch_89">
    <path clip-path="url(#p8889117c55)" d="M 338.294279 253.1955 
L 340.862748 253.1955 
L 340.862748 164.199986 
L 338.294279 164.199986 
z
" style="fill:#8dd3c7;"/>
   </g>
   <g id="patch_90">
    <path clip-path="url(#p8889117c55)" d="M 341.504866 253.1955 
L 344.073335 253.1955 
L 344.073335 162.488534 
L 341.504866 162.488534 
z
" style="fill:#8dd3c7;"/>
   </g>
   <g id="patch_91">
    <path clip-path="url(#p8889117c55)" d="M 344.715452 253.1955 
L 347.283922 253.1955 
L 347.283922 171.045795 
L 344.715452 171.045795 
z
" style="fill:#8dd3c7;"/>
   </g>
   <g id="patch_92">
    <path clip-path="url(#p8889117c55)" d="M 347.926039 253.1955 
L 350.494509 253.1955 
L 350.494509 138.528204 
L 347.926039 138.528204 
z
" style="fill:#8dd3c7;"/>
   </g>
   <g id="patch_93">
    <path clip-path="url(#p8889117c55)" d="M 351.136626 253.1955 
L 353.705096 253.1955 
L 353.705096 46.109786 
L 351.136626 46.109786 
z
" style="fill:#8dd3c7;"/>
   </g>
   <g id="patch_94">
    <path clip-path="url(#p8889117c55)" d="M 354.347213 253.1955 
L 356.915683 253.1955 
L 356.915683 162.488534 
L 354.347213 162.488534 
z
" style="fill:#8dd3c7;"/>
   </g>
   <g id="patch_95">
    <path clip-path="url(#p8889117c55)" d="M 357.5578 253.1955 
L 360.126269 253.1955 
L 360.126269 176.180152 
L 357.5578 176.180152 
z
" style="fill:#8dd3c7;"/>
   </g>
   <g id="patch_96">
    <path clip-path="url(#p8889117c55)" d="M 360.768387 253.1955 
L 363.336856 253.1955 
L 363.336856 162.488534 
L 360.768387 162.488534 
z
" style="fill:#8dd3c7;"/>
   </g>
   <g id="patch_97">
    <path clip-path="url(#p8889117c55)" d="M 363.978974 253.1955 
L 366.547443 253.1955 
L 366.547443 188.160317 
L 363.978974 188.160317 
z
" style="fill:#8dd3c7;"/>
   </g>
   <g id="matplotlib.axis_1">
    <g id="xtick_1">
     <g id="line2d_1">
      <defs>
       <path d="M 0 0 
L 0 3.5 
" id="m63ac3b537b" style="stroke:#ffffff;stroke-width:0.8;"/>
      </defs>
      <g>
       <use style="fill:#ffffff;stroke:#ffffff;stroke-width:0.8;" x="63.468042" xlink:href="#m63ac3b537b" y="253.1955"/>
      </g>
     </g>
     <g id="text_1">
      <!-- 0 -->
      <defs>
       <path d="M 31.78125 66.40625 
Q 24.171875 66.40625 20.328125 58.90625 
Q 16.5 51.421875 16.5 36.375 
Q 16.5 21.390625 20.328125 13.890625 
Q 24.171875 6.390625 31.78125 6.390625 
Q 39.453125 6.390625 43.28125 13.890625 
Q 47.125 21.390625 47.125 36.375 
Q 47.125 51.421875 43.28125 58.90625 
Q 39.453125 66.40625 31.78125 66.40625 
z
M 31.78125 74.21875 
Q 44.046875 74.21875 50.515625 64.515625 
Q 56.984375 54.828125 56.984375 36.375 
Q 56.984375 17.96875 50.515625 8.265625 
Q 44.046875 -1.421875 31.78125 -1.421875 
Q 19.53125 -1.421875 13.0625 8.265625 
Q 6.59375 17.96875 6.59375 36.375 
Q 6.59375 54.828125 13.0625 64.515625 
Q 19.53125 74.21875 31.78125 74.21875 
z
" id="DejaVuSans-48"/>
      </defs>
      <g style="fill:#ffffff;" transform="translate(60.286792 267.793937)scale(0.1 -0.1)">
       <use xlink:href="#DejaVuSans-48"/>
      </g>
     </g>
    </g>
    <g id="xtick_2">
     <g id="line2d_2">
      <g>
       <use style="fill:#ffffff;stroke:#ffffff;stroke-width:0.8;" x="127.679779" xlink:href="#m63ac3b537b" y="253.1955"/>
      </g>
     </g>
     <g id="text_2">
      <!-- 20 -->
      <defs>
       <path d="M 19.1875 8.296875 
L 53.609375 8.296875 
L 53.609375 0 
L 7.328125 0 
L 7.328125 8.296875 
Q 12.9375 14.109375 22.625 23.890625 
Q 32.328125 33.6875 34.8125 36.53125 
Q 39.546875 41.84375 41.421875 45.53125 
Q 43.3125 49.21875 43.3125 52.78125 
Q 43.3125 58.59375 39.234375 62.25 
Q 35.15625 65.921875 28.609375 65.921875 
Q 23.96875 65.921875 18.8125 64.3125 
Q 13.671875 62.703125 7.8125 59.421875 
L 7.8125 69.390625 
Q 13.765625 71.78125 18.9375 73 
Q 24.125 74.21875 28.421875 74.21875 
Q 39.75 74.21875 46.484375 68.546875 
Q 53.21875 62.890625 53.21875 53.421875 
Q 53.21875 48.921875 51.53125 44.890625 
Q 49.859375 40.875 45.40625 35.40625 
Q 44.1875 33.984375 37.640625 27.21875 
Q 31.109375 20.453125 19.1875 8.296875 
z
" id="DejaVuSans-50"/>
      </defs>
      <g style="fill:#ffffff;" transform="translate(121.317279 267.793937)scale(0.1 -0.1)">
       <use xlink:href="#DejaVuSans-50"/>
       <use x="63.623047" xlink:href="#DejaVuSans-48"/>
      </g>
     </g>
    </g>
    <g id="xtick_3">
     <g id="line2d_3">
      <g>
       <use style="fill:#ffffff;stroke:#ffffff;stroke-width:0.8;" x="191.891517" xlink:href="#m63ac3b537b" y="253.1955"/>
      </g>
     </g>
     <g id="text_3">
      <!-- 40 -->
      <defs>
       <path d="M 37.796875 64.3125 
L 12.890625 25.390625 
L 37.796875 25.390625 
z
M 35.203125 72.90625 
L 47.609375 72.90625 
L 47.609375 25.390625 
L 58.015625 25.390625 
L 58.015625 17.1875 
L 47.609375 17.1875 
L 47.609375 0 
L 37.796875 0 
L 37.796875 17.1875 
L 4.890625 17.1875 
L 4.890625 26.703125 
z
" id="DejaVuSans-52"/>
      </defs>
      <g style="fill:#ffffff;" transform="translate(185.529017 267.793937)scale(0.1 -0.1)">
       <use xlink:href="#DejaVuSans-52"/>
       <use x="63.623047" xlink:href="#DejaVuSans-48"/>
      </g>
     </g>
    </g>
    <g id="xtick_4">
     <g id="line2d_4">
      <g>
       <use style="fill:#ffffff;stroke:#ffffff;stroke-width:0.8;" x="256.103254" xlink:href="#m63ac3b537b" y="253.1955"/>
      </g>
     </g>
     <g id="text_4">
      <!-- 60 -->
      <defs>
       <path d="M 33.015625 40.375 
Q 26.375 40.375 22.484375 35.828125 
Q 18.609375 31.296875 18.609375 23.390625 
Q 18.609375 15.53125 22.484375 10.953125 
Q 26.375 6.390625 33.015625 6.390625 
Q 39.65625 6.390625 43.53125 10.953125 
Q 47.40625 15.53125 47.40625 23.390625 
Q 47.40625 31.296875 43.53125 35.828125 
Q 39.65625 40.375 33.015625 40.375 
z
M 52.59375 71.296875 
L 52.59375 62.3125 
Q 48.875 64.0625 45.09375 64.984375 
Q 41.3125 65.921875 37.59375 65.921875 
Q 27.828125 65.921875 22.671875 59.328125 
Q 17.53125 52.734375 16.796875 39.40625 
Q 19.671875 43.65625 24.015625 45.921875 
Q 28.375 48.1875 33.59375 48.1875 
Q 44.578125 48.1875 50.953125 41.515625 
Q 57.328125 34.859375 57.328125 23.390625 
Q 57.328125 12.15625 50.6875 5.359375 
Q 44.046875 -1.421875 33.015625 -1.421875 
Q 20.359375 -1.421875 13.671875 8.265625 
Q 6.984375 17.96875 6.984375 36.375 
Q 6.984375 53.65625 15.1875 63.9375 
Q 23.390625 74.21875 37.203125 74.21875 
Q 40.921875 74.21875 44.703125 73.484375 
Q 48.484375 72.75 52.59375 71.296875 
z
" id="DejaVuSans-54"/>
      </defs>
      <g style="fill:#ffffff;" transform="translate(249.740754 267.793937)scale(0.1 -0.1)">
       <use xlink:href="#DejaVuSans-54"/>
       <use x="63.623047" xlink:href="#DejaVuSans-48"/>
      </g>
     </g>
    </g>
    <g id="xtick_5">
     <g id="line2d_5">
      <g>
       <use style="fill:#ffffff;stroke:#ffffff;stroke-width:0.8;" x="320.314992" xlink:href="#m63ac3b537b" y="253.1955"/>
      </g>
     </g>
     <g id="text_5">
      <!-- 80 -->
      <defs>
       <path d="M 31.78125 34.625 
Q 24.75 34.625 20.71875 30.859375 
Q 16.703125 27.09375 16.703125 20.515625 
Q 16.703125 13.921875 20.71875 10.15625 
Q 24.75 6.390625 31.78125 6.390625 
Q 38.8125 6.390625 42.859375 10.171875 
Q 46.921875 13.96875 46.921875 20.515625 
Q 46.921875 27.09375 42.890625 30.859375 
Q 38.875 34.625 31.78125 34.625 
z
M 21.921875 38.8125 
Q 15.578125 40.375 12.03125 44.71875 
Q 8.5 49.078125 8.5 55.328125 
Q 8.5 64.0625 14.71875 69.140625 
Q 20.953125 74.21875 31.78125 74.21875 
Q 42.671875 74.21875 48.875 69.140625 
Q 55.078125 64.0625 55.078125 55.328125 
Q 55.078125 49.078125 51.53125 44.71875 
Q 48 40.375 41.703125 38.8125 
Q 48.828125 37.15625 52.796875 32.3125 
Q 56.78125 27.484375 56.78125 20.515625 
Q 56.78125 9.90625 50.3125 4.234375 
Q 43.84375 -1.421875 31.78125 -1.421875 
Q 19.734375 -1.421875 13.25 4.234375 
Q 6.78125 9.90625 6.78125 20.515625 
Q 6.78125 27.484375 10.78125 32.3125 
Q 14.796875 37.15625 21.921875 38.8125 
z
M 18.3125 54.390625 
Q 18.3125 48.734375 21.84375 45.5625 
Q 25.390625 42.390625 31.78125 42.390625 
Q 38.140625 42.390625 41.71875 45.5625 
Q 45.3125 48.734375 45.3125 54.390625 
Q 45.3125 60.0625 41.71875 63.234375 
Q 38.140625 66.40625 31.78125 66.40625 
Q 25.390625 66.40625 21.84375 63.234375 
Q 18.3125 60.0625 18.3125 54.390625 
z
" id="DejaVuSans-56"/>
      </defs>
      <g style="fill:#ffffff;" transform="translate(313.952492 267.793937)scale(0.1 -0.1)">
       <use xlink:href="#DejaVuSans-56"/>
       <use x="63.623047" xlink:href="#DejaVuSans-48"/>
      </g>
     </g>
    </g>
    <g id="text_6">
     <!-- Characters -->
     <defs>
      <path d="M 64.40625 67.28125 
L 64.40625 56.890625 
Q 59.421875 61.53125 53.78125 63.8125 
Q 48.140625 66.109375 41.796875 66.109375 
Q 29.296875 66.109375 22.65625 58.46875 
Q 16.015625 50.828125 16.015625 36.375 
Q 16.015625 21.96875 22.65625 14.328125 
Q 29.296875 6.6875 41.796875 6.6875 
Q 48.140625 6.6875 53.78125 8.984375 
Q 59.421875 11.28125 64.40625 15.921875 
L 64.40625 5.609375 
Q 59.234375 2.09375 53.4375 0.328125 
Q 47.65625 -1.421875 41.21875 -1.421875 
Q 24.65625 -1.421875 15.125 8.703125 
Q 5.609375 18.84375 5.609375 36.375 
Q 5.609375 53.953125 15.125 64.078125 
Q 24.65625 74.21875 41.21875 74.21875 
Q 47.75 74.21875 53.53125 72.484375 
Q 59.328125 70.75 64.40625 67.28125 
z
" id="DejaVuSans-67"/>
      <path d="M 54.890625 33.015625 
L 54.890625 0 
L 45.90625 0 
L 45.90625 32.71875 
Q 45.90625 40.484375 42.875 44.328125 
Q 39.84375 48.1875 33.796875 48.1875 
Q 26.515625 48.1875 22.3125 43.546875 
Q 18.109375 38.921875 18.109375 30.90625 
L 18.109375 0 
L 9.078125 0 
L 9.078125 75.984375 
L 18.109375 75.984375 
L 18.109375 46.1875 
Q 21.34375 51.125 25.703125 53.5625 
Q 30.078125 56 35.796875 56 
Q 45.21875 56 50.046875 50.171875 
Q 54.890625 44.34375 54.890625 33.015625 
z
" id="DejaVuSans-104"/>
      <path d="M 34.28125 27.484375 
Q 23.390625 27.484375 19.1875 25 
Q 14.984375 22.515625 14.984375 16.5 
Q 14.984375 11.71875 18.140625 8.90625 
Q 21.296875 6.109375 26.703125 6.109375 
Q 34.1875 6.109375 38.703125 11.40625 
Q 43.21875 16.703125 43.21875 25.484375 
L 43.21875 27.484375 
z
M 52.203125 31.203125 
L 52.203125 0 
L 43.21875 0 
L 43.21875 8.296875 
Q 40.140625 3.328125 35.546875 0.953125 
Q 30.953125 -1.421875 24.3125 -1.421875 
Q 15.921875 -1.421875 10.953125 3.296875 
Q 6 8.015625 6 15.921875 
Q 6 25.140625 12.171875 29.828125 
Q 18.359375 34.515625 30.609375 34.515625 
L 43.21875 34.515625 
L 43.21875 35.40625 
Q 43.21875 41.609375 39.140625 45 
Q 35.0625 48.390625 27.6875 48.390625 
Q 23 48.390625 18.546875 47.265625 
Q 14.109375 46.140625 10.015625 43.890625 
L 10.015625 52.203125 
Q 14.9375 54.109375 19.578125 55.046875 
Q 24.21875 56 28.609375 56 
Q 40.484375 56 46.34375 49.84375 
Q 52.203125 43.703125 52.203125 31.203125 
z
" id="DejaVuSans-97"/>
      <path d="M 41.109375 46.296875 
Q 39.59375 47.171875 37.8125 47.578125 
Q 36.03125 48 33.890625 48 
Q 26.265625 48 22.1875 43.046875 
Q 18.109375 38.09375 18.109375 28.8125 
L 18.109375 0 
L 9.078125 0 
L 9.078125 54.6875 
L 18.109375 54.6875 
L 18.109375 46.1875 
Q 20.953125 51.171875 25.484375 53.578125 
Q 30.03125 56 36.53125 56 
Q 37.453125 56 38.578125 55.875 
Q 39.703125 55.765625 41.0625 55.515625 
z
" id="DejaVuSans-114"/>
      <path d="M 48.78125 52.59375 
L 48.78125 44.1875 
Q 44.96875 46.296875 41.140625 47.34375 
Q 37.3125 48.390625 33.40625 48.390625 
Q 24.65625 48.390625 19.8125 42.84375 
Q 14.984375 37.3125 14.984375 27.296875 
Q 14.984375 17.28125 19.8125 11.734375 
Q 24.65625 6.203125 33.40625 6.203125 
Q 37.3125 6.203125 41.140625 7.25 
Q 44.96875 8.296875 48.78125 10.40625 
L 48.78125 2.09375 
Q 45.015625 0.34375 40.984375 -0.53125 
Q 36.96875 -1.421875 32.421875 -1.421875 
Q 20.0625 -1.421875 12.78125 6.34375 
Q 5.515625 14.109375 5.515625 27.296875 
Q 5.515625 40.671875 12.859375 48.328125 
Q 20.21875 56 33.015625 56 
Q 37.15625 56 41.109375 55.140625 
Q 45.0625 54.296875 48.78125 52.59375 
z
" id="DejaVuSans-99"/>
      <path d="M 18.3125 70.21875 
L 18.3125 54.6875 
L 36.8125 54.6875 
L 36.8125 47.703125 
L 18.3125 47.703125 
L 18.3125 18.015625 
Q 18.3125 11.328125 20.140625 9.421875 
Q 21.96875 7.515625 27.59375 7.515625 
L 36.8125 7.515625 
L 36.8125 0 
L 27.59375 0 
Q 17.1875 0 13.234375 3.875 
Q 9.28125 7.765625 9.28125 18.015625 
L 9.28125 47.703125 
L 2.6875 47.703125 
L 2.6875 54.6875 
L 9.28125 54.6875 
L 9.28125 70.21875 
z
" id="DejaVuSans-116"/>
      <path d="M 56.203125 29.59375 
L 56.203125 25.203125 
L 14.890625 25.203125 
Q 15.484375 15.921875 20.484375 11.0625 
Q 25.484375 6.203125 34.421875 6.203125 
Q 39.59375 6.203125 44.453125 7.46875 
Q 49.3125 8.734375 54.109375 11.28125 
L 54.109375 2.78125 
Q 49.265625 0.734375 44.1875 -0.34375 
Q 39.109375 -1.421875 33.890625 -1.421875 
Q 20.796875 -1.421875 13.15625 6.1875 
Q 5.515625 13.8125 5.515625 26.8125 
Q 5.515625 40.234375 12.765625 48.109375 
Q 20.015625 56 32.328125 56 
Q 43.359375 56 49.78125 48.890625 
Q 56.203125 41.796875 56.203125 29.59375 
z
M 47.21875 32.234375 
Q 47.125 39.59375 43.09375 43.984375 
Q 39.0625 48.390625 32.421875 48.390625 
Q 24.90625 48.390625 20.390625 44.140625 
Q 15.875 39.890625 15.1875 32.171875 
z
" id="DejaVuSans-101"/>
      <path d="M 44.28125 53.078125 
L 44.28125 44.578125 
Q 40.484375 46.53125 36.375 47.5 
Q 32.28125 48.484375 27.875 48.484375 
Q 21.1875 48.484375 17.84375 46.4375 
Q 14.5 44.390625 14.5 40.28125 
Q 14.5 37.15625 16.890625 35.375 
Q 19.28125 33.59375 26.515625 31.984375 
L 29.59375 31.296875 
Q 39.15625 29.25 43.1875 25.515625 
Q 47.21875 21.78125 47.21875 15.09375 
Q 47.21875 7.46875 41.1875 3.015625 
Q 35.15625 -1.421875 24.609375 -1.421875 
Q 20.21875 -1.421875 15.453125 -0.5625 
Q 10.6875 0.296875 5.421875 2 
L 5.421875 11.28125 
Q 10.40625 8.6875 15.234375 7.390625 
Q 20.0625 6.109375 24.8125 6.109375 
Q 31.15625 6.109375 34.5625 8.28125 
Q 37.984375 10.453125 37.984375 14.40625 
Q 37.984375 18.0625 35.515625 20.015625 
Q 33.0625 21.96875 24.703125 23.78125 
L 21.578125 24.515625 
Q 13.234375 26.265625 9.515625 29.90625 
Q 5.8125 33.546875 5.8125 39.890625 
Q 5.8125 47.609375 11.28125 51.796875 
Q 16.75 56 26.8125 56 
Q 31.78125 56 36.171875 55.265625 
Q 40.578125 54.546875 44.28125 53.078125 
z
" id="DejaVuSans-115"/>
     </defs>
     <g style="fill:#ffffff;" transform="translate(187.075781 281.472062)scale(0.1 -0.1)">
      <use xlink:href="#DejaVuSans-67"/>
      <use x="69.824219" xlink:href="#DejaVuSans-104"/>
      <use x="133.203125" xlink:href="#DejaVuSans-97"/>
      <use x="194.482422" xlink:href="#DejaVuSans-114"/>
      <use x="235.595703" xlink:href="#DejaVuSans-97"/>
      <use x="296.875" xlink:href="#DejaVuSans-99"/>
      <use x="351.855469" xlink:href="#DejaVuSans-116"/>
      <use x="391.064453" xlink:href="#DejaVuSans-101"/>
      <use x="452.587891" xlink:href="#DejaVuSans-114"/>
      <use x="493.701172" xlink:href="#DejaVuSans-115"/>
     </g>
    </g>
   </g>
   <g id="matplotlib.axis_2">
    <g id="ytick_1">
     <g id="line2d_6">
      <defs>
       <path d="M 0 0 
L -3.5 0 
" id="m250df1c6bb" style="stroke:#ffffff;stroke-width:0.8;"/>
      </defs>
      <g>
       <use style="fill:#ffffff;stroke:#ffffff;stroke-width:0.8;" x="46.965625" xlink:href="#m250df1c6bb" y="253.1955"/>
      </g>
     </g>
     <g id="text_7">
      <!-- 0 -->
      <g style="fill:#ffffff;" transform="translate(33.603125 256.994719)scale(0.1 -0.1)">
       <use xlink:href="#DejaVuSans-48"/>
      </g>
     </g>
    </g>
    <g id="ytick_2">
     <g id="line2d_7">
      <g>
       <use style="fill:#ffffff;stroke:#ffffff;stroke-width:0.8;" x="46.965625" xlink:href="#m250df1c6bb" y="218.966456"/>
      </g>
     </g>
     <g id="text_8">
      <!-- 20 -->
      <g style="fill:#ffffff;" transform="translate(27.240625 222.765675)scale(0.1 -0.1)">
       <use xlink:href="#DejaVuSans-50"/>
       <use x="63.623047" xlink:href="#DejaVuSans-48"/>
      </g>
     </g>
    </g>
    <g id="ytick_3">
     <g id="line2d_8">
      <g>
       <use style="fill:#ffffff;stroke:#ffffff;stroke-width:0.8;" x="46.965625" xlink:href="#m250df1c6bb" y="184.737413"/>
      </g>
     </g>
     <g id="text_9">
      <!-- 40 -->
      <g style="fill:#ffffff;" transform="translate(27.240625 188.536631)scale(0.1 -0.1)">
       <use xlink:href="#DejaVuSans-52"/>
       <use x="63.623047" xlink:href="#DejaVuSans-48"/>
      </g>
     </g>
    </g>
    <g id="ytick_4">
     <g id="line2d_9">
      <g>
       <use style="fill:#ffffff;stroke:#ffffff;stroke-width:0.8;" x="46.965625" xlink:href="#m250df1c6bb" y="150.508369"/>
      </g>
     </g>
     <g id="text_10">
      <!-- 60 -->
      <g style="fill:#ffffff;" transform="translate(27.240625 154.307588)scale(0.1 -0.1)">
       <use xlink:href="#DejaVuSans-54"/>
       <use x="63.623047" xlink:href="#DejaVuSans-48"/>
      </g>
     </g>
    </g>
    <g id="ytick_5">
     <g id="line2d_10">
      <g>
       <use style="fill:#ffffff;stroke:#ffffff;stroke-width:0.8;" x="46.965625" xlink:href="#m250df1c6bb" y="116.279325"/>
      </g>
     </g>
     <g id="text_11">
      <!-- 80 -->
      <g style="fill:#ffffff;" transform="translate(27.240625 120.078544)scale(0.1 -0.1)">
       <use xlink:href="#DejaVuSans-56"/>
       <use x="63.623047" xlink:href="#DejaVuSans-48"/>
      </g>
     </g>
    </g>
    <g id="ytick_6">
     <g id="line2d_11">
      <g>
       <use style="fill:#ffffff;stroke:#ffffff;stroke-width:0.8;" x="46.965625" xlink:href="#m250df1c6bb" y="82.050282"/>
      </g>
     </g>
     <g id="text_12">
      <!-- 100 -->
      <defs>
       <path d="M 12.40625 8.296875 
L 28.515625 8.296875 
L 28.515625 63.921875 
L 10.984375 60.40625 
L 10.984375 69.390625 
L 28.421875 72.90625 
L 38.28125 72.90625 
L 38.28125 8.296875 
L 54.390625 8.296875 
L 54.390625 0 
L 12.40625 0 
z
" id="DejaVuSans-49"/>
      </defs>
      <g style="fill:#ffffff;" transform="translate(20.878125 85.8495)scale(0.1 -0.1)">
       <use xlink:href="#DejaVuSans-49"/>
       <use x="63.623047" xlink:href="#DejaVuSans-48"/>
       <use x="127.246094" xlink:href="#DejaVuSans-48"/>
      </g>
     </g>
    </g>
    <g id="ytick_7">
     <g id="line2d_12">
      <g>
       <use style="fill:#ffffff;stroke:#ffffff;stroke-width:0.8;" x="46.965625" xlink:href="#m250df1c6bb" y="47.821238"/>
      </g>
     </g>
     <g id="text_13">
      <!-- 120 -->
      <g style="fill:#ffffff;" transform="translate(20.878125 51.620457)scale(0.1 -0.1)">
       <use xlink:href="#DejaVuSans-49"/>
       <use x="63.623047" xlink:href="#DejaVuSans-50"/>
       <use x="127.246094" xlink:href="#DejaVuSans-48"/>
      </g>
     </g>
    </g>
    <g id="text_14">
     <!-- Count -->
     <defs>
      <path d="M 30.609375 48.390625 
Q 23.390625 48.390625 19.1875 42.75 
Q 14.984375 37.109375 14.984375 27.296875 
Q 14.984375 17.484375 19.15625 11.84375 
Q 23.34375 6.203125 30.609375 6.203125 
Q 37.796875 6.203125 41.984375 11.859375 
Q 46.1875 17.53125 46.1875 27.296875 
Q 46.1875 37.015625 41.984375 42.703125 
Q 37.796875 48.390625 30.609375 48.390625 
z
M 30.609375 56 
Q 42.328125 56 49.015625 48.375 
Q 55.71875 40.765625 55.71875 27.296875 
Q 55.71875 13.875 49.015625 6.21875 
Q 42.328125 -1.421875 30.609375 -1.421875 
Q 18.84375 -1.421875 12.171875 6.21875 
Q 5.515625 13.875 5.515625 27.296875 
Q 5.515625 40.765625 12.171875 48.375 
Q 18.84375 56 30.609375 56 
z
" id="DejaVuSans-111"/>
      <path d="M 8.5 21.578125 
L 8.5 54.6875 
L 17.484375 54.6875 
L 17.484375 21.921875 
Q 17.484375 14.15625 20.5 10.265625 
Q 23.53125 6.390625 29.59375 6.390625 
Q 36.859375 6.390625 41.078125 11.03125 
Q 45.3125 15.671875 45.3125 23.6875 
L 45.3125 54.6875 
L 54.296875 54.6875 
L 54.296875 0 
L 45.3125 0 
L 45.3125 8.40625 
Q 42.046875 3.421875 37.71875 1 
Q 33.40625 -1.421875 27.6875 -1.421875 
Q 18.265625 -1.421875 13.375 4.4375 
Q 8.5 10.296875 8.5 21.578125 
z
M 31.109375 56 
z
" id="DejaVuSans-117"/>
      <path d="M 54.890625 33.015625 
L 54.890625 0 
L 45.90625 0 
L 45.90625 32.71875 
Q 45.90625 40.484375 42.875 44.328125 
Q 39.84375 48.1875 33.796875 48.1875 
Q 26.515625 48.1875 22.3125 43.546875 
Q 18.109375 38.921875 18.109375 30.90625 
L 18.109375 0 
L 9.078125 0 
L 9.078125 54.6875 
L 18.109375 54.6875 
L 18.109375 46.1875 
Q 21.34375 51.125 25.703125 53.5625 
Q 30.078125 56 35.796875 56 
Q 45.21875 56 50.046875 50.171875 
Q 54.890625 44.34375 54.890625 33.015625 
z
" id="DejaVuSans-110"/>
     </defs>
     <g style="fill:#ffffff;" transform="translate(14.798438 159.323937)rotate(-90)scale(0.1 -0.1)">
      <use xlink:href="#DejaVuSans-67"/>
      <use x="69.824219" xlink:href="#DejaVuSans-111"/>
      <use x="131.005859" xlink:href="#DejaVuSans-117"/>
      <use x="194.384766" xlink:href="#DejaVuSans-110"/>
      <use x="257.763672" xlink:href="#DejaVuSans-116"/>
     </g>
    </g>
   </g>
   <g id="patch_98">
    <path d="M 46.965625 253.1955 
L 46.965625 35.7555 
" style="fill:none;stroke:#ffffff;stroke-linecap:square;stroke-linejoin:miter;stroke-width:0.8;"/>
   </g>
   <g id="patch_99">
    <path d="M 381.765625 253.1955 
L 381.765625 35.7555 
" style="fill:none;stroke:#ffffff;stroke-linecap:square;stroke-linejoin:miter;stroke-width:0.8;"/>
   </g>
   <g id="patch_100">
    <path d="M 46.965625 253.1955 
L 381.765625 253.1955 
" style="fill:none;stroke:#ffffff;stroke-linecap:square;stroke-linejoin:miter;stroke-width:0.8;"/>
   </g>
   <g id="patch_101">
    <path d="M 46.965625 35.7555 
L 381.765625 35.7555 
" style="fill:none;stroke:#ffffff;stroke-linecap:square;stroke-linejoin:miter;stroke-width:0.8;"/>
   </g>
   <g id="text_15">
    <!-- Rough distribution of all characters -->
    <defs>
     <path d="M 44.390625 34.1875 
Q 47.5625 33.109375 50.5625 29.59375 
Q 53.5625 26.078125 56.59375 19.921875 
L 66.609375 0 
L 56 0 
L 46.6875 18.703125 
Q 43.0625 26.03125 39.671875 28.421875 
Q 36.28125 30.8125 30.421875 30.8125 
L 19.671875 30.8125 
L 19.671875 0 
L 9.8125 0 
L 9.8125 72.90625 
L 32.078125 72.90625 
Q 44.578125 72.90625 50.734375 67.671875 
Q 56.890625 62.453125 56.890625 51.90625 
Q 56.890625 45.015625 53.6875 40.46875 
Q 50.484375 35.9375 44.390625 34.1875 
z
M 19.671875 64.796875 
L 19.671875 38.921875 
L 32.078125 38.921875 
Q 39.203125 38.921875 42.84375 42.21875 
Q 46.484375 45.515625 46.484375 51.90625 
Q 46.484375 58.296875 42.84375 61.546875 
Q 39.203125 64.796875 32.078125 64.796875 
z
" id="DejaVuSans-82"/>
     <path d="M 45.40625 27.984375 
Q 45.40625 37.75 41.375 43.109375 
Q 37.359375 48.484375 30.078125 48.484375 
Q 22.859375 48.484375 18.828125 43.109375 
Q 14.796875 37.75 14.796875 27.984375 
Q 14.796875 18.265625 18.828125 12.890625 
Q 22.859375 7.515625 30.078125 7.515625 
Q 37.359375 7.515625 41.375 12.890625 
Q 45.40625 18.265625 45.40625 27.984375 
z
M 54.390625 6.78125 
Q 54.390625 -7.171875 48.1875 -13.984375 
Q 42 -20.796875 29.203125 -20.796875 
Q 24.46875 -20.796875 20.265625 -20.09375 
Q 16.0625 -19.390625 12.109375 -17.921875 
L 12.109375 -9.1875 
Q 16.0625 -11.328125 19.921875 -12.34375 
Q 23.78125 -13.375 27.78125 -13.375 
Q 36.625 -13.375 41.015625 -8.765625 
Q 45.40625 -4.15625 45.40625 5.171875 
L 45.40625 9.625 
Q 42.625 4.78125 38.28125 2.390625 
Q 33.9375 0 27.875 0 
Q 17.828125 0 11.671875 7.65625 
Q 5.515625 15.328125 5.515625 27.984375 
Q 5.515625 40.671875 11.671875 48.328125 
Q 17.828125 56 27.875 56 
Q 33.9375 56 38.28125 53.609375 
Q 42.625 51.21875 45.40625 46.390625 
L 45.40625 54.6875 
L 54.390625 54.6875 
z
" id="DejaVuSans-103"/>
     <path id="DejaVuSans-32"/>
     <path d="M 45.40625 46.390625 
L 45.40625 75.984375 
L 54.390625 75.984375 
L 54.390625 0 
L 45.40625 0 
L 45.40625 8.203125 
Q 42.578125 3.328125 38.25 0.953125 
Q 33.9375 -1.421875 27.875 -1.421875 
Q 17.96875 -1.421875 11.734375 6.484375 
Q 5.515625 14.40625 5.515625 27.296875 
Q 5.515625 40.1875 11.734375 48.09375 
Q 17.96875 56 27.875 56 
Q 33.9375 56 38.25 53.625 
Q 42.578125 51.265625 45.40625 46.390625 
z
M 14.796875 27.296875 
Q 14.796875 17.390625 18.875 11.75 
Q 22.953125 6.109375 30.078125 6.109375 
Q 37.203125 6.109375 41.296875 11.75 
Q 45.40625 17.390625 45.40625 27.296875 
Q 45.40625 37.203125 41.296875 42.84375 
Q 37.203125 48.484375 30.078125 48.484375 
Q 22.953125 48.484375 18.875 42.84375 
Q 14.796875 37.203125 14.796875 27.296875 
z
" id="DejaVuSans-100"/>
     <path d="M 9.421875 54.6875 
L 18.40625 54.6875 
L 18.40625 0 
L 9.421875 0 
z
M 9.421875 75.984375 
L 18.40625 75.984375 
L 18.40625 64.59375 
L 9.421875 64.59375 
z
" id="DejaVuSans-105"/>
     <path d="M 48.6875 27.296875 
Q 48.6875 37.203125 44.609375 42.84375 
Q 40.53125 48.484375 33.40625 48.484375 
Q 26.265625 48.484375 22.1875 42.84375 
Q 18.109375 37.203125 18.109375 27.296875 
Q 18.109375 17.390625 22.1875 11.75 
Q 26.265625 6.109375 33.40625 6.109375 
Q 40.53125 6.109375 44.609375 11.75 
Q 48.6875 17.390625 48.6875 27.296875 
z
M 18.109375 46.390625 
Q 20.953125 51.265625 25.265625 53.625 
Q 29.59375 56 35.59375 56 
Q 45.5625 56 51.78125 48.09375 
Q 58.015625 40.1875 58.015625 27.296875 
Q 58.015625 14.40625 51.78125 6.484375 
Q 45.5625 -1.421875 35.59375 -1.421875 
Q 29.59375 -1.421875 25.265625 0.953125 
Q 20.953125 3.328125 18.109375 8.203125 
L 18.109375 0 
L 9.078125 0 
L 9.078125 75.984375 
L 18.109375 75.984375 
z
" id="DejaVuSans-98"/>
     <path d="M 37.109375 75.984375 
L 37.109375 68.5 
L 28.515625 68.5 
Q 23.6875 68.5 21.796875 66.546875 
Q 19.921875 64.59375 19.921875 59.515625 
L 19.921875 54.6875 
L 34.71875 54.6875 
L 34.71875 47.703125 
L 19.921875 47.703125 
L 19.921875 0 
L 10.890625 0 
L 10.890625 47.703125 
L 2.296875 47.703125 
L 2.296875 54.6875 
L 10.890625 54.6875 
L 10.890625 58.5 
Q 10.890625 67.625 15.140625 71.796875 
Q 19.390625 75.984375 28.609375 75.984375 
z
" id="DejaVuSans-102"/>
     <path d="M 9.421875 75.984375 
L 18.40625 75.984375 
L 18.40625 0 
L 9.421875 0 
z
" id="DejaVuSans-108"/>
    </defs>
    <g style="fill:#ffffff;" transform="translate(108.644688 16.318125)scale(0.12 -0.12)">
     <use xlink:href="#DejaVuSans-82"/>
     <use x="69.419922" xlink:href="#DejaVuSans-111"/>
     <use x="130.601562" xlink:href="#DejaVuSans-117"/>
     <use x="193.980469" xlink:href="#DejaVuSans-103"/>
     <use x="257.457031" xlink:href="#DejaVuSans-104"/>
     <use x="320.835938" xlink:href="#DejaVuSans-32"/>
     <use x="352.623047" xlink:href="#DejaVuSans-100"/>
     <use x="416.099609" xlink:href="#DejaVuSans-105"/>
     <use x="443.882812" xlink:href="#DejaVuSans-115"/>
     <use x="495.982422" xlink:href="#DejaVuSans-116"/>
     <use x="535.191406" xlink:href="#DejaVuSans-114"/>
     <use x="576.304688" xlink:href="#DejaVuSans-105"/>
     <use x="604.087891" xlink:href="#DejaVuSans-98"/>
     <use x="667.564453" xlink:href="#DejaVuSans-117"/>
     <use x="730.943359" xlink:href="#DejaVuSans-116"/>
     <use x="770.152344" xlink:href="#DejaVuSans-105"/>
     <use x="797.935547" xlink:href="#DejaVuSans-111"/>
     <use x="859.117188" xlink:href="#DejaVuSans-110"/>
     <use x="922.496094" xlink:href="#DejaVuSans-32"/>
     <use x="954.283203" xlink:href="#DejaVuSans-111"/>
     <use x="1015.464844" xlink:href="#DejaVuSans-102"/>
     <use x="1050.669922" xlink:href="#DejaVuSans-32"/>
     <use x="1082.457031" xlink:href="#DejaVuSans-97"/>
     <use x="1143.736328" xlink:href="#DejaVuSans-108"/>
     <use x="1171.519531" xlink:href="#DejaVuSans-108"/>
     <use x="1199.302734" xlink:href="#DejaVuSans-32"/>
     <use x="1231.089844" xlink:href="#DejaVuSans-99"/>
     <use x="1286.070312" xlink:href="#DejaVuSans-104"/>
     <use x="1349.449219" xlink:href="#DejaVuSans-97"/>
     <use x="1410.728516" xlink:href="#DejaVuSans-114"/>
     <use x="1451.841797" xlink:href="#DejaVuSans-97"/>
     <use x="1513.121094" xlink:href="#DejaVuSans-99"/>
     <use x="1568.101562" xlink:href="#DejaVuSans-116"/>
     <use x="1607.310547" xlink:href="#DejaVuSans-101"/>
     <use x="1668.833984" xlink:href="#DejaVuSans-114"/>
     <use x="1709.947266" xlink:href="#DejaVuSans-115"/>
    </g>
    <!-- in training set -->
    <g style="fill:#ffffff;" transform="translate(172.669375 29.7555)scale(0.12 -0.12)">
     <use xlink:href="#DejaVuSans-105"/>
     <use x="27.783203" xlink:href="#DejaVuSans-110"/>
     <use x="91.162109" xlink:href="#DejaVuSans-32"/>
     <use x="122.949219" xlink:href="#DejaVuSans-116"/>
     <use x="162.158203" xlink:href="#DejaVuSans-114"/>
     <use x="203.271484" xlink:href="#DejaVuSans-97"/>
     <use x="264.550781" xlink:href="#DejaVuSans-105"/>
     <use x="292.333984" xlink:href="#DejaVuSans-110"/>
     <use x="355.712891" xlink:href="#DejaVuSans-105"/>
     <use x="383.496094" xlink:href="#DejaVuSans-110"/>
     <use x="446.875" xlink:href="#DejaVuSans-103"/>
     <use x="510.351562" xlink:href="#DejaVuSans-32"/>
     <use x="542.138672" xlink:href="#DejaVuSans-115"/>
     <use x="594.238281" xlink:href="#DejaVuSans-101"/>
     <use x="655.761719" xlink:href="#DejaVuSans-116"/>
    </g>
   </g>
  </g>
 </g>
 <defs>
  <clipPath id="p8889117c55">
   <rect height="217.44" width="334.8" x="46.965625" y="35.7555"/>
  </clipPath>
 </defs>
</svg>
